<svg width="72" height="30" viewBox="0 0 72 30" fill="none" xmlns="http://www.w3.org/2000/svg">
<path d="M6.19628 23.8531C7.67285 23.7967 8.25399 22.8835 10.033 22.8835C11.8239 22.8835 12.3457 23.8531 13.9023 23.8323C15.5153 23.7997 16.5263 22.3676 17.5167 20.897C18.6374 19.2247 19.1059 17.6147 19.1296 17.5228C19.097 17.4902 16.0164 16.2923 15.9837 12.681C15.9511 9.65666 18.418 8.2216 18.5277 8.13265C17.1342 6.03343 14.9638 5.80808 14.2077 5.75175L14.2107 5.75472C12.2775 5.64205 10.623 6.87252 9.70981 6.87252C8.77583 6.87252 7.37635 5.81105 5.84048 5.84366C3.85393 5.87924 2.00674 7.02077 0.995673 8.83535C-1.09465 12.4793 0.450113 17.8638 2.47224 20.8317C3.45959 22.2994 4.63966 23.9124 6.19628 23.8531ZM42.2507 12.4141H45.2868C45.5418 11.0591 46.7753 10.1696 48.4683 10.1696C50.526 10.1696 51.6824 11.1392 51.6824 12.933V14.1516L47.478 14.4125C43.576 14.6497 41.462 16.2745 41.462 19.0943C41.4739 21.9377 43.6502 23.8323 46.7782 23.8323C48.8893 23.8323 50.8462 22.7501 51.7357 21.0245H51.8039V23.6663H54.9172V12.7195C54.9172 9.54992 52.4147 7.49517 48.5691 7.49517C44.9963 7.49517 42.3545 9.57067 42.2507 12.4141ZM51.6912 17.7096C51.6912 19.7643 49.9686 21.2291 47.6885 21.2291C45.8976 21.2291 44.7531 20.3484 44.7531 19.0172C44.7531 17.6295 45.8532 16.829 47.9553 16.7045L51.6912 16.4673V17.7096ZM25.3739 1.66895V23.6633H28.7421V16.15H33.4031C37.6609 16.15 40.6407 13.1791 40.6407 8.89168C40.6407 4.60429 37.7053 1.66895 33.5128 1.66895H25.3739ZM37.2161 8.90058C37.2161 11.6758 35.5498 13.2799 32.6115 13.2799H28.7421V4.54796H32.6233C35.5468 4.54796 37.2161 6.12534 37.2161 8.90058ZM63.7084 20.6954L59.7501 7.70569H56.2366L61.9294 23.7226L61.6181 24.6922C61.1051 26.3407 60.272 26.9841 58.7835 26.9841C58.5167 26.9841 58.0067 26.9515 57.7962 26.9278V29.5696L59.086 29.6497L59.083 29.6467C62.3652 29.6467 63.9071 28.3688 65.2561 24.5232L71.1594 7.70569H67.7349L63.7766 20.6954H63.7084Z" fill="white"/>
<path d="M13.9604 5.74879C12.134 5.74879 10.5833 6.87252 9.71155 6.87252C8.7924 6.87252 7.41961 5.84366 5.91339 5.84366C5.88967 5.84366 5.86595 5.84366 5.84223 5.84366C3.85568 5.87924 2.00848 7.02077 0.997416 8.83535C-0.00475396 10.5847 -0.170794 12.7343 0.149426 14.8247H16.4213C16.1604 14.2317 15.9885 13.5201 15.9796 12.681C15.9469 9.65666 18.4138 8.2216 18.5235 8.13265C17.1359 6.03342 14.9655 5.80808 14.2095 5.75175L14.2124 5.75471C14.1294 5.75175 14.0434 5.74879 13.9604 5.74879ZM48.5679 7.49517C44.998 7.49517 42.3532 9.57067 42.2524 12.4141H45.2886C45.5436 11.0591 46.777 10.1696 48.47 10.1696C50.5278 10.1696 51.6841 11.1392 51.6841 12.933V14.1516L47.4797 14.4125C46.5339 14.4689 45.6918 14.6082 44.9595 14.8276H54.916V12.7225C54.9189 9.54695 52.4165 7.49517 48.5679 7.49517ZM28.7439 13.2828V4.54796H32.6251C35.5486 4.54796 37.2179 6.12831 37.2179 8.90355C37.2179 11.6788 35.5515 13.2828 32.6132 13.2828H28.7439ZM33.5146 1.66895H25.3756V14.8247H37.796C39.5691 13.5586 40.6395 11.4623 40.6395 8.89168C40.6424 4.60429 37.7071 1.66895 33.5146 1.66895ZM59.7519 7.70569H56.2383L58.7704 14.8247H61.9222L59.7519 7.70569ZM71.1612 7.70569H67.7366L65.5662 14.8247H68.6617L71.1612 7.70569Z" fill="white"/>
<path d="M9.49666 5.49711C10.8309 5.60978 12.1652 4.82109 13.0013 3.81595C13.8226 2.79006 14.3682 1.39652 14.2347 0C13.0458 0.0593 11.59 0.78869 10.7538 1.81754C9.98589 2.69518 9.33062 4.14211 9.49666 5.49711Z" fill="white"/>
<path d="M14.2347 0C13.0457 0.0593 11.5899 0.78869 10.7538 1.81754C10.5225 2.08439 10.3001 2.40165 10.1074 2.75448H13.6802C14.0983 1.91835 14.3266 0.96066 14.2347 0Z" fill="white"/>
</svg>
