<svg width="33" height="33" viewBox="0 0 37 37" fill="none" xmlns="http://www.w3.org/2000/svg">
<path d="M8.14675 3.06753C8.14675 2.19048 7.43576 1.47949 6.55864 1.47949L2.55686 1.47949C1.67967 1.47949 0.96875 2.19048 0.96875 3.06753L0.96875 7.06945C0.96875 7.9465 1.67967 8.65749 2.55686 8.65749H6.55864C7.43576 8.65749 8.14675 7.9465 8.14675 7.06945V3.06753ZM6.96275 7.10704C6.96275 7.30943 6.79869 7.47349 6.5963 7.47349H2.5932C2.39081 7.47349 2.22675 7.30943 2.22675 7.10704V3.10394C2.22675 2.90155 2.39081 2.73749 2.5932 2.73749H6.5963C6.79869 2.73749 6.96275 2.90155 6.96275 3.10394V7.10704ZM15.9907 3.06753C15.9907 2.19048 15.2798 1.47949 14.4026 1.47949L10.4009 1.47949C9.52367 1.47949 8.81275 2.19048 8.81275 3.06753V7.06945C8.81275 7.9465 9.52367 8.65749 10.4009 8.65749H14.4026C15.2798 8.65749 15.9907 7.9465 15.9907 7.06945V3.06753ZM14.8067 7.10704C14.8067 7.30943 14.6427 7.47349 14.4403 7.47349H10.4372C10.2348 7.47349 10.0707 7.30943 10.0707 7.10704V3.10394C10.0707 2.90155 10.2348 2.73749 10.4372 2.73749L14.4403 2.73749C14.6427 2.73749 14.8067 2.90155 14.8067 3.10394V7.10704ZM8.14675 12.0215C8.14675 11.1445 7.43576 10.4335 6.55864 10.4335H2.55686C1.67967 10.4335 0.96875 11.1445 0.96875 12.0215L0.96875 16.0235C0.96875 16.9005 1.67967 17.6115 2.55686 17.6115H6.55864C7.43576 17.6115 8.14675 16.9005 8.14675 16.0235V12.0215ZM6.96275 16.061C6.96275 16.2634 6.79869 16.4275 6.5963 16.4275H2.5932C2.39081 16.4275 2.22675 16.2634 2.22675 16.061V12.0579C2.22675 11.8555 2.39081 11.6915 2.5932 11.6915H6.5963C6.79869 11.6915 6.96275 11.8555 6.96275 12.0579V16.061ZM8.14675 20.9015C8.14675 20.0245 7.43576 19.3135 6.55864 19.3135H2.55686C1.67967 19.3135 0.96875 20.0245 0.96875 20.9015L0.96875 24.9035C0.96875 25.7805 1.67967 26.4915 2.55686 26.4915H6.55864C7.43576 26.4915 8.14675 25.7805 8.14675 24.9035V20.9015ZM6.96275 24.941C6.96275 25.1434 6.79869 25.3075 6.5963 25.3075H2.5932C2.39081 25.3075 2.22675 25.1434 2.22675 24.941L2.22675 20.9379C2.22675 20.7355 2.39081 20.5715 2.5932 20.5715H6.5963C6.79869 20.5715 6.96275 20.7355 6.96275 20.9379V24.941ZM8.14675 29.7815C8.14675 28.9045 7.43576 28.1935 6.55864 28.1935H2.55686C1.67967 28.1935 0.96875 28.9045 0.96875 29.7815L0.96875 33.7835C0.96875 34.6605 1.67967 35.3715 2.55686 35.3715H6.55864C7.43576 35.3715 8.14675 34.6605 8.14675 33.7835V29.7815ZM6.96275 33.821C6.96275 34.0234 6.79869 34.1875 6.5963 34.1875H2.5932C2.39081 34.1875 2.22675 34.0234 2.22675 33.821V29.8179C2.22675 29.6156 2.39081 29.4515 2.5932 29.4515H6.5963C6.79869 29.4515 6.96275 29.6156 6.96275 29.8179V33.821ZM28.2007 3.06753C28.2007 2.19048 27.4898 1.47949 26.6126 1.47949L22.6109 1.47949C21.7337 1.47949 21.0227 2.19048 21.0227 3.06753V7.06945C21.0227 7.9465 21.7337 8.65749 22.6109 8.65749L26.6126 8.65749C27.4898 8.65749 28.2007 7.9465 28.2007 7.06945V3.06753ZM27.0167 7.10704C27.0167 7.30943 26.8527 7.47349 26.6503 7.47349L22.6472 7.47349C22.4448 7.47349 22.2807 7.30943 22.2807 7.10704V3.10394C22.2807 2.90155 22.4448 2.73749 22.6472 2.73749L26.6503 2.73749C26.8527 2.73749 27.0167 2.90155 27.0167 3.10394V7.10704ZM36.0447 3.06753C36.0447 2.19048 35.3338 1.47949 34.4566 1.47949L30.4549 1.47949C29.5777 1.47949 28.8667 2.19048 28.8667 3.06753V7.06945C28.8667 7.9465 29.5777 8.65749 30.4549 8.65749H34.4566C35.3338 8.65749 36.0447 7.9465 36.0447 7.06945V3.06753ZM34.7867 7.10704C34.7867 7.30943 34.6227 7.47349 34.4203 7.47349H30.4172C30.2148 7.47349 30.0507 7.30943 30.0507 7.10704V3.10394C30.0507 2.90155 30.2148 2.73749 30.4172 2.73749H34.4203C34.6227 2.73749 34.7867 2.90155 34.7867 3.10394V7.10704ZM36.0447 12.0215C36.0447 11.1445 35.3338 10.4335 34.4566 10.4335H30.4549C29.5777 10.4335 28.8667 11.1445 28.8667 12.0215V16.0235C28.8667 16.9005 29.5777 17.6115 30.4549 17.6115L34.4566 17.6115C35.3338 17.6115 36.0447 16.9005 36.0447 16.0235V12.0215ZM34.7867 16.061C34.7867 16.2634 34.6227 16.4275 34.4203 16.4275H30.4172C30.2148 16.4275 30.0507 16.2634 30.0507 16.061V12.0579C30.0507 11.8555 30.2148 11.6915 30.4172 11.6915H34.4203C34.6227 11.6915 34.7867 11.8555 34.7867 12.0579V16.061ZM36.0447 29.7815C36.0447 28.9045 35.3338 28.1935 34.4566 28.1935L30.4549 28.1935C29.5777 28.1935 28.8667 28.9045 28.8667 29.7815L28.8667 33.7835C28.8667 34.6605 29.5777 35.3715 30.4549 35.3715H34.4566C35.3338 35.3715 36.0447 34.6605 36.0447 33.7835V29.7815ZM34.7867 33.821C34.7867 34.0234 34.6227 34.1875 34.4203 34.1875H30.4172C30.2148 34.1875 30.0507 34.0234 30.0507 33.821L30.0507 29.8179C30.0507 29.6156 30.2148 29.4515 30.4172 29.4515L34.4203 29.4515C34.6227 29.4515 34.7867 29.6156 34.7867 29.8179V33.821ZM23.945 16.7097C23.5128 16.6098 22.8676 16.5867 22.1686 16.9981C22.0195 16.9398 21.8687 16.8955 21.7163 16.8656C21.0797 16.7418 20.4356 16.8752 19.901 17.241C19.8206 17.2957 19.7438 17.353 19.6711 17.412C19.0721 17.3182 18.4658 17.4279 17.8944 17.7322L16.3444 15.46C16.2267 15.288 16.1388 15.1316 15.9908 14.9888V12.0325C15.9908 11.1554 15.2712 10.4335 14.3941 10.4335H10.4036C9.52655 10.4335 8.81275 11.1554 8.81275 12.0325V16.023C8.81275 16.9001 9.52655 17.6115 10.4035 17.6115H11.9808C12.1064 17.9075 12.2452 18.0878 12.3433 18.2223L15.3179 22.5798C15.1395 22.8683 14.9758 23.2137 14.8674 23.6163C14.6331 24.4857 14.5946 25.8739 15.7419 27.5509C16.8591 29.1844 18.4725 30.2682 20.2853 30.6031C21.8649 30.8949 23.5055 30.5924 24.6735 29.7934C25.4941 29.2322 26.867 28.2929 27.7299 26.8651C28.5038 25.5844 29.1045 23.49 27.5709 20.7832C25.9768 17.9702 25.3441 17.0338 23.945 16.7097ZM23.8951 28.6553C22.2593 29.7741 18.9115 29.7423 16.8799 26.7725C16.0515 25.5615 16.009 24.5981 16.2211 23.9L17.4238 25.658C17.6387 25.9725 18.0678 26.0527 18.3818 25.8378C18.6959 25.6228 18.7768 25.194 18.5618 24.8795L13.4683 17.4247C13.4334 17.3769 12.5493 16.2122 13.4772 15.5776C14.0211 15.2055 14.4428 15.1283 15.2022 16.2386L17.755 19.9701C17.8125 19.6259 17.9907 19.3112 18.3405 19.0718C18.7293 18.8057 19.1211 18.7086 19.5051 18.7828C19.7341 18.8268 19.9338 18.9263 20.1051 19.0515C20.1899 18.83 20.3618 18.5963 20.6794 18.3791C20.9106 18.221 21.1775 18.1655 21.4511 18.2189C21.781 18.2836 22.0923 18.4958 22.3664 18.7619C22.4387 18.5582 22.5767 18.3813 22.7782 18.2435C23.064 18.0481 23.3435 17.9859 23.6335 18.0529C24.3829 18.2266 24.7707 18.639 26.3715 21.4631C28.6168 25.4254 25.4277 27.6068 23.8951 28.6553ZM26.9056 29.633C26.9393 29.6908 26.9427 29.7551 26.9427 29.8193L26.9427 33.8014C26.9427 34.0001 26.785 34.1136 26.5864 34.1136H22.6043C22.4056 34.1136 22.2808 34.0001 22.2808 33.8014L22.2808 31.894C21.9848 31.9201 21.7475 31.9337 21.4862 31.9337C21.3378 31.9337 21.1708 31.9278 21.0228 31.9194L21.0228 33.8014C21.0228 34.6771 21.7287 35.3716 22.6043 35.3716H26.5864C27.4619 35.3716 28.2007 34.6771 28.2007 33.8014L28.2007 29.8194C28.2007 29.4275 28.0428 29.0624 27.8014 28.7778C27.5115 29.0946 27.2017 29.3788 26.9056 29.633ZM14.7582 28.2567C14.6405 28.2288 14.5184 28.1935 14.3923 28.1935H10.4103C9.53462 28.1935 8.81275 28.9438 8.81275 29.8193V33.8014C8.81275 34.677 9.53462 35.3716 10.4103 35.3716H14.3923C15.2679 35.3716 15.9908 34.677 15.9908 33.8014V29.8193C15.9908 29.7787 15.9825 29.7294 15.9796 29.6895C15.5338 29.2675 15.121 28.7817 14.7582 28.2567ZM14.8067 33.821C14.8067 34.0234 14.6427 34.1875 14.4403 34.1875H10.4372C10.2348 34.1875 10.0707 34.0234 10.0707 33.821V29.8179C10.0707 29.6156 10.2348 29.4515 10.4372 29.4515H14.4403C14.6427 29.4515 14.8067 29.6156 14.8067 29.8179V33.821Z" fill="white"/>
<path d="M10.4002 26.4887H13.8243C13.6752 26.0447 13.5851 25.6747 13.5396 25.2307H10.4002C10.2016 25.2307 10.0607 25.0838 10.0607 24.8852V20.9031C10.0607 20.7045 10.2016 20.5687 10.4002 20.5687H12.4386L11.6047 19.3107H10.4002C9.5246 19.3107 8.80273 20.0276 8.80273 20.9031V24.8852C8.80273 25.7608 9.5246 26.4887 10.4002 26.4887ZM26.5763 16.2767H25.9167C26.2932 16.6467 26.6504 17.0008 26.9965 17.4743C27.6752 17.2938 28.1907 16.7066 28.1907 15.9719V11.9898C28.1907 11.1141 27.4519 10.4307 26.5763 10.4307H22.5943C21.7186 10.4307 21.0127 11.1141 21.0127 11.9898V15.6045C21.0867 15.5995 21.166 15.5963 21.2449 15.5963C21.4777 15.5963 21.7109 15.619 21.9431 15.6642C21.9804 15.6716 22.0383 15.6794 22.0755 15.6878C22.1334 15.6645 22.1968 15.6428 22.2708 15.6224V11.9898C22.2708 11.7911 22.3956 11.6887 22.5943 11.6887H26.5763C26.775 11.6887 26.9327 11.7912 26.9327 11.9898V15.9719C26.9327 16.1705 26.775 16.2767 26.5763 16.2767ZM34.3977 19.3107H30.4156C29.6392 19.3107 28.9923 19.8734 28.8554 20.6106C29.4998 21.8894 29.7932 23.1698 29.7256 24.4208C29.6944 24.9985 29.5868 25.5707 29.4058 26.117C29.6805 26.3438 30.0324 26.4886 30.4156 26.4886H34.3977C35.2733 26.4886 36.0347 25.7607 36.0347 24.8851V20.9031C36.0347 20.0276 35.2733 19.3107 34.3977 19.3107ZM34.7767 24.9382C34.7767 25.1406 34.6127 25.3047 34.4103 25.3047H30.4072C30.2048 25.3047 30.0407 25.1406 30.0407 24.9382V20.9351C30.0407 20.7327 30.2048 20.5687 30.4072 20.5687H34.4103C34.6127 20.5687 34.7767 20.7327 34.7767 20.9351V24.9382Z" fill="white"/>
</svg>
