<svg width="40" height="40" viewBox="0 0 51 51" fill="none" xmlns="http://www.w3.org/2000/svg">
<path d="M19.125 10.625V10.625C17.1509 10.625 16.1638 10.625 15.3379 10.7558C10.7915 11.4759 7.22588 15.0415 6.50581 19.5879C6.375 20.4138 6.375 21.4009 6.375 23.375V27.625C6.375 33.5756 6.375 36.5508 7.53306 38.8236C8.55171 40.8229 10.1771 42.4483 12.1764 43.4669C14.4492 44.625 17.4244 44.625 23.375 44.625H31.875C33.8491 44.625 34.8362 44.625 35.6621 44.4942C40.2085 43.7741 43.7741 40.2085 44.4942 35.6621C44.625 34.8362 44.625 33.8491 44.625 31.875V31.875M19.125 10.625V13.8125M19.125 10.625V6.375M19.125 10.625H31.875M31.875 10.625H32.0875C33.864 10.625 34.7523 10.625 35.4971 10.731C40.1763 11.3969 43.8531 15.0737 44.519 19.7529C44.625 20.4977 44.625 21.386 44.625 23.1625V23.1625V23.375M31.875 10.625V6.375M31.875 10.625V13.8125" stroke="white" stroke-width="3.1875" stroke-linecap="round" stroke-linejoin="round"/>
</svg>
