<svg width="18" height="18" viewBox="0 0 26 26" fill="none" xmlns="http://www.w3.org/2000/svg">
<path d="M9.75 5.41667V5.41667C8.74358 5.41667 8.24037 5.41667 7.81931 5.48335C5.50156 5.85045 3.68378 7.66823 3.31669 9.98598C3.25 10.407 3.25 10.9102 3.25 11.9167V14.0833C3.25 17.117 3.25 18.6338 3.84038 19.7924C4.3597 20.8117 5.18834 21.6403 6.20755 22.1596C7.36624 22.75 8.88305 22.75 11.9167 22.75H16.25C17.2564 22.75 17.7596 22.75 18.1807 22.6833C20.4984 22.3162 22.3162 20.4984 22.6833 18.1807C22.75 17.7596 22.75 17.2564 22.75 16.25V16.25M9.75 5.41667V7.04167M9.75 5.41667V3.25M9.75 5.41667H16.25M16.25 5.41667H16.3583C17.264 5.41667 17.7169 5.41667 18.0965 5.47071C20.482 5.81021 22.3565 7.68464 22.696 10.0701C22.75 10.4498 22.75 10.9027 22.75 11.8083V11.8083V11.9167M16.25 5.41667V3.25M16.25 5.41667V7.04167" stroke="white" stroke-width="1.625" stroke-linecap="round" stroke-linejoin="round"/>
</svg>
