<svg width="26" height="26" viewBox="0 0 51 51" fill="none" xmlns="http://www.w3.org/2000/svg">
<path d="M30.8145 21.249V21.249C30.8145 18.9018 28.9117 16.999 26.5645 16.999H25.502M25.502 16.999H24.4395C22.0922 16.999 20.1895 18.9018 20.1895 21.249V21.249C20.1895 23.5962 22.0922 25.499 24.4395 25.499H25.502M25.502 16.999V13.8115M25.502 16.999V25.499M25.502 25.499H26.5645C28.9117 25.499 30.8145 27.4018 30.8145 29.749V29.749C30.8145 32.0962 28.9117 33.999 26.5645 33.999H25.502M25.502 25.499V33.999M25.502 33.999H24.4395C22.0922 33.999 20.1895 32.0962 20.1895 29.749V29.749M25.502 33.999V37.1865" stroke="white" stroke-width="3.1875" stroke-linecap="round" stroke-linejoin="round"/>
<path d="M36.125 9.59554C33.086 7.56133 29.4316 6.375 25.5 6.375C14.9376 6.375 6.375 14.9376 6.375 25.5C6.375 36.0624 14.9376 44.625 25.5 44.625C36.0624 44.625 44.625 36.0624 44.625 25.5C44.625 22.0165 43.6937 18.7505 42.0664 15.9375" stroke="white" stroke-width="3.1875" stroke-linecap="round" stroke-linejoin="round"/>
</svg>
