<svg width="25" height="25" viewBox="0 0 26 26" fill="none" xmlns="http://www.w3.org/2000/svg">
<path d="M22.5084 10.8333C21.5232 6.49136 17.6401 3.25 13 3.25C7.61522 3.25 3.25 7.61522 3.25 13C3.25 18.3848 7.61522 22.75 13 22.75C17.6401 22.75 21.5231 19.5086 22.5084 15.1667" stroke="#CD292E" stroke-width="1.625" stroke-linecap="round" stroke-linejoin="round"/>
<path fill-rule="evenodd" clip-rule="evenodd" d="M14.4372 12.2409L17.875 12.2409C18.3237 12.2409 18.6875 12.6047 18.6875 13.0534C18.6875 13.5022 18.3237 13.8659 17.875 13.8659L14.3753 13.8659C14.0875 14.322 13.5792 14.625 13 14.625C12.1025 14.625 11.375 13.8975 11.375 13C11.375 12.3985 11.7018 11.8734 12.1875 11.5924L12.1875 7.09509C12.1875 6.64636 12.5513 6.28259 13 6.28259C13.4487 6.28259 13.8125 6.64636 13.8125 7.09509L13.8125 11.5924C14.0768 11.7453 14.294 11.9705 14.4372 12.2409Z" fill="#CD292E"/>
</svg>
