<svg width="54" height="38" viewBox="0 0 54 38" fill="none" xmlns="http://www.w3.org/2000/svg">
<path d="M49.4538 0H4.54474C2.15988 0 0.226562 1.93332 0.226562 4.31818V33.6818C0.226562 36.0667 2.15988 38 4.54474 38H49.4538C51.8387 38 53.772 36.0667 53.772 33.6818V4.31818C53.772 1.93332 51.8387 0 49.4538 0Z" fill="white"/>
<path d="M17.5007 17.2734H8.86435C7.43343 17.2734 6.27344 18.4334 6.27344 19.8643V28.5007C6.27344 29.9316 7.43343 31.0916 8.86435 31.0916H17.5007C18.9316 31.0916 20.0916 29.9316 20.0916 28.5007V19.8643C20.0916 18.4334 18.9316 17.2734 17.5007 17.2734Z" fill="#EBEBEB"/>
<path d="M40.3844 31.0911C42.5308 31.0911 44.2708 29.3511 44.2708 27.2047C44.2708 25.0583 42.5308 23.3184 40.3844 23.3184C38.238 23.3184 36.498 25.0583 36.498 27.2047C36.498 29.3511 38.238 31.0911 40.3844 31.0911Z" fill="#D7D7D7"/>
<path d="M43.8414 31.0911C45.9878 31.0911 47.7278 29.3511 47.7278 27.2047C47.7278 25.0583 45.9878 23.3184 43.8414 23.3184C41.6951 23.3184 39.9551 25.0583 39.9551 27.2047C39.9551 29.3511 41.6951 31.0911 43.8414 31.0911Z" fill="#EBEBEB"/>
<path d="M11.4553 26.7728V31.091H9.72798V27.6365H6.27344V25.9092H10.5916C10.8207 25.9092 11.0403 26.0002 11.2023 26.1621C11.3643 26.3241 11.4553 26.5438 11.4553 26.7728Z" fill="#D7D7D7"/>
<path d="M0.226562 10.3643H53.772V12.0915H0.226562V10.3643Z" fill="#EBEBEB"/>
<path d="M20.09 20.728V22.4553H15.7718C15.5428 22.4553 15.3231 22.3643 15.1612 22.2023C14.9992 22.0403 14.9082 21.8207 14.9082 21.5916V17.2734H16.6355V20.728H20.09Z" fill="#D7D7D7"/>
<path d="M9.72763 6.90891H8.00036C7.7713 6.90891 7.55164 6.81792 7.38967 6.65596C7.22771 6.494 7.13672 6.27433 7.13672 6.04528C7.13672 5.81623 7.22771 5.59656 7.38967 5.43459C7.55164 5.27263 7.7713 5.18164 8.00036 5.18164H9.72763C9.95668 5.18164 10.1763 5.27263 10.3383 5.43459C10.5003 5.59656 10.5913 5.81623 10.5913 6.04528C10.5913 6.27433 10.5003 6.494 10.3383 6.65596C10.1763 6.81792 9.95668 6.90891 9.72763 6.90891Z" fill="#EBEBEB"/>
<path d="M15.7725 6.90891H14.0453C13.8162 6.90891 13.5966 6.81792 13.4346 6.65596C13.2726 6.494 13.1816 6.27433 13.1816 6.04528C13.1816 5.81623 13.2726 5.59656 13.4346 5.43459C13.5966 5.27263 13.8162 5.18164 14.0453 5.18164H15.7725C16.0016 5.18164 16.2213 5.27263 16.3832 5.43459C16.5452 5.59656 16.6362 5.81623 16.6362 6.04528C16.6362 6.27433 16.5452 6.494 16.3832 6.65596C16.2213 6.81792 16.0016 6.90891 15.7725 6.90891Z" fill="#EBEBEB"/>
<path d="M21.8175 6.90891H20.0902C19.8611 6.90891 19.6415 6.81792 19.4795 6.65596C19.3176 6.494 19.2266 6.27433 19.2266 6.04528C19.2266 5.81623 19.3176 5.59656 19.4795 5.43459C19.6415 5.27263 19.8611 5.18164 20.0902 5.18164H21.8175C22.0465 5.18164 22.2662 5.27263 22.4282 5.43459C22.5901 5.59656 22.6811 5.81623 22.6811 6.04528C22.6811 6.27433 22.5901 6.494 22.4282 6.65596C22.2662 6.81792 22.0465 6.90891 21.8175 6.90891Z" fill="#EBEBEB"/>
</svg>
