<svg width="21" height="20" viewBox="0 0 21 20" fill="none" xmlns="http://www.w3.org/2000/svg">
<path fill-rule="evenodd" clip-rule="evenodd" d="M14.5438 9.9972L19.0659 5.47265C20.3135 4.22561 20.3133 2.19467 19.0653 0.94692C17.8157 -0.308824 15.7911 -0.309396 14.5426 0.945641L10.0213 5.47009L5.49888 0.943085C4.25089 -0.312658 2.22626 -0.31323 0.977008 0.941807C-0.270651 2.18885 -0.270383 4.21979 0.977606 5.46754L5.50007 9.99465L0.978803 14.5272C-0.268857 15.7742 -0.268589 17.8053 0.979401 19.053C2.22899 20.3088 4.25361 20.3093 5.50127 19.0543L10.0225 14.5298L14.545 19.0569C15.7938 20.3126 17.8184 20.3132 19.0677 19.0581C20.3153 17.8111 20.315 15.7801 19.0671 14.5323L14.5438 9.9972Z" fill="#6C0D0D"/>
</svg>
