<svg width="30" height="30" viewBox="0 0 38 38" fill="none" xmlns="http://www.w3.org/2000/svg">
<path d="M22.1667 22.1667H15.8333M22.1667 22.1667V27.2803C22.1667 30.3939 22.1667 31.9507 21.5763 32.5321C21.1327 32.969 20.5094 33.1717 19.8938 33.0793C19.0743 32.9563 18.1586 31.6973 16.3273 29.1792V29.1792C16.1381 28.919 16.0435 28.7889 15.9777 28.6457C15.9266 28.5343 15.8886 28.4174 15.8644 28.2973C15.8333 28.1427 15.8333 27.9819 15.8333 27.6601V22.1667M22.1667 22.1667L24.5417 18.4345M15.8333 22.1667L10.3247 13.5102C8.15653 10.1031 7.07246 8.39958 7.48264 7.01637C7.61143 6.58208 7.83189 6.18048 8.12914 5.83867C9.07589 4.75 11.0951 4.75 15.1335 4.75H23.496C26.9655 4.75 28.7003 4.75 29.6058 5.57211C30.1291 6.04718 30.4782 6.68315 30.598 7.37968C30.8054 8.58501 29.8737 10.0491 28.0103 12.9772V12.9772C27.9864 13.0147 27.9392 13.0889 27.9392 13.0889" stroke="white" stroke-width="2.375" stroke-linecap="round" stroke-linejoin="round"/>
</svg>
