<svg width="80" height="30" viewBox="0 0 80 30" fill="none" xmlns="http://www.w3.org/2000/svg">
<path d="M41.9961 0.0599347H33.4082V23.1165H36.6464V13.7806V13.774H41.9961C44.2 13.774 46.0546 13.1217 47.5534 11.8106L47.5666 11.8007C48.9765 10.6774 49.8791 8.94459 49.8791 6.99767C49.8791 6.97132 49.8791 6.94496 49.8791 6.9219C49.9088 5.06723 49.0622 3.29491 47.5534 2.05297L47.5633 2.06285C46.1304 0.814324 44.2527 0.0566406 42.2004 0.0566406C42.1279 0.0566406 42.0554 0.0599347 41.9961 0.0599347ZM45.2739 4.12177C46.104 4.86298 46.5751 5.87762 46.5751 6.93837C46.5751 8.00242 46.104 9.01706 45.2739 9.75827C44.4338 10.5489 43.271 10.9837 42.0686 10.9508H36.6398V2.8996H42.0587C42.1114 2.8963 42.1641 2.8963 42.2169 2.8963C43.4028 2.8963 44.48 3.36409 45.2739 4.12177Z" fill="white"/>
<path d="M22.9141 3.48828L22.9307 3.50492L22.9141 3.48828Z" fill="white"/>
<path d="M1.90563 19.1518L1.94186 19.2243C4.19838 23.5003 8.68836 26.4124 13.8602 26.4124C13.88 26.4124 13.8998 26.4124 13.9162 26.4124C17.5431 26.4124 20.6001 25.2462 22.827 23.2301C25.3635 20.9373 26.8261 17.5442 26.8261 13.5384C26.8261 12.6391 26.7504 11.7463 26.5955 10.8602H13.9162V15.9333H21.1766C20.8768 17.5706 19.9084 19.0201 18.4951 19.9425C17.2862 20.743 15.7313 21.1976 13.9162 21.1976C10.4409 21.1745 7.48268 18.941 6.37584 15.7785C6.10242 14.9846 5.94759 14.1281 5.94759 13.2386C5.94759 12.336 6.10242 11.4663 6.36925 10.7152L6.38572 10.6592C7.4728 7.54282 10.431 5.30271 13.9162 5.27965C13.9591 5.27965 14.0052 5.27965 14.048 5.27965C15.9916 5.27965 17.7605 6.03075 19.0749 7.25622L22.9094 3.49416C20.5837 1.36276 17.4871 0.0615234 14.0809 0.0615234C14.0249 0.0615234 13.9656 0.0615234 13.9162 0.0615234C13.8965 0.0615234 13.88 0.0615234 13.8602 0.0615234C8.69165 0.0615234 4.20167 2.97366 1.90892 7.31881C0.993138 9.09442 0.472656 11.1039 0.472656 13.2386C0.472656 15.3964 1.00302 17.4322 1.90563 19.1518Z" fill="white"/>
<path d="M76.1609 6.64551L71.3909 18.1392H71.325L66.4167 6.64551H63.0566L69.846 21.6312L66.0148 29.7021H69.2036L79.5276 6.64551H76.1609Z" fill="white"/>
<path d="M63.0654 22.6128V13.0825C63.0654 11.0862 62.4692 9.51153 61.2767 8.36512C60.0809 7.21871 58.4503 6.64551 56.3881 6.64551C53.7363 6.64551 51.7334 7.65685 50.3828 9.67624L52.8436 11.2838C53.7495 9.91672 54.9848 9.23151 56.5462 9.23151C56.5561 9.23151 56.566 9.23151 56.5759 9.23151C57.607 9.23151 58.5458 9.63671 59.2376 10.2923L59.2409 10.2956C59.9458 10.9116 60.3905 11.8175 60.3905 12.8256C60.3905 12.8387 60.3905 12.8519 60.3905 12.8618V13.524C59.3199 12.8947 57.9528 12.5785 56.2959 12.5785C54.3523 12.5818 52.7974 13.0529 51.6346 13.9983C50.4717 14.9471 49.8887 16.2154 49.8887 17.8131C49.8887 17.8493 49.8887 17.8856 49.8887 17.9218C49.8887 19.3845 50.5244 20.6956 51.5424 21.6015C52.6492 22.6128 54.0196 23.1169 55.6601 23.1169C57.5773 23.1169 59.1157 22.234 60.2719 20.465H60.3938V22.6128H63.0654ZM59.0103 19.1736C58.1768 20.0367 57.0469 20.5276 55.8709 20.5309C55.0836 20.544 54.3161 20.2772 53.7 19.7732L53.6935 19.7699C53.1334 19.3383 52.7711 18.663 52.7711 17.902C52.7711 17.8954 52.7711 17.8856 52.7711 17.879C52.7711 17.0356 53.1532 16.334 53.9175 15.7608C54.6751 15.1909 55.6206 14.9042 56.757 14.9042C58.3152 14.9042 59.5275 15.2633 60.4004 15.9881V16.0012C60.4004 17.2531 59.8668 18.383 59.0103 19.1736Z" fill="white"/>
</svg>
