<svg width="18" height="18" viewBox="0 0 26 26" fill="none" xmlns="http://www.w3.org/2000/svg">
<path d="M16.2796 20.7637C15.8384 21.152 15.4133 21.5038 15.0237 21.8132C14.2617 22.4184 13.8807 22.721 13.29 22.8007C13.1262 22.8229 12.8738 22.8229 12.7101 22.8008C12.1194 22.721 11.739 22.4189 10.9782 21.8148C8.65053 19.9664 5.05395 16.6031 4.33322 13C3.24972 7.58333 7.61511 3.25 12.9999 3.25C18.3847 3.25 22.7498 7.58333 21.6666 13C21.339 14.6381 20.4169 16.2266 19.2899 17.6458M16.2498 12.0792C16.2498 13.8741 14.7947 15.3292 12.9998 15.3292C11.2048 15.3292 9.74976 13.8741 9.74976 12.0792C9.74976 10.2842 11.2048 8.82917 12.9998 8.82917C14.7947 8.82917 16.2498 10.2842 16.2498 12.0792Z" stroke="white" stroke-width="1.625" stroke-linecap="round" stroke-linejoin="round"/>
</svg>
