<svg width="300" height="300" viewBox="0 0 909 703" fill="none" xmlns="http://www.w3.org/2000/svg">
<g opacity="0.8">
<path fill-rule="evenodd" clip-rule="evenodd" d="M442.217 658.288C556.337 658.288 661.413 659.984 744.784 662.867C948.775 546.26 878.121 318.982 804.924 190.392C702.957 11.4411 462.057 -52.8819 362.407 89.8948C227.148 283.655 96.693 216.054 26.2656 363.239C-44.1619 510.425 62.7793 651.506 139.65 662.867C223.022 659.984 328.041 658.288 442.217 658.288ZM263.435 162.074C211.208 201.81 124.841 232.615 96.1843 190.336C74.7622 158.796 101.158 99.5602 152.82 54.6245C204.482 9.74542 273.666 -17.3855 311.423 15.6238C356.189 54.9072 303.68 131.496 263.435 162.074Z" fill="#0A0A0A" stroke="#B62121" stroke-width="2"/>
<path fill-rule="evenodd" clip-rule="evenodd" d="M454.2 658.288C704.483 658.288 907.4 667.897 907.4 679.767C907.4 691.637 704.483 701.245 454.2 701.245C203.917 701.245 1 691.637 1 679.767C1 667.897 203.917 658.288 454.2 658.288Z" fill="#0A0A0A" stroke="#B62121" stroke-width="2"/>
<path fill-rule="evenodd" clip-rule="evenodd" d="M600.481 65.0251C723.022 92.3257 801.024 205.032 808.654 259.464C811.763 281.79 805.998 229.563 743.483 181.971C687.582 139.466 644.116 131.553 577.646 126.409C530.675 122.791 481.5 117.026 484.948 88.9908C487.661 66.8339 521.349 47.39 600.481 65.0251ZM279.996 19.4112C301.079 20.6547 313.967 38.0072 314.814 57.9598C315.21 66.4382 308.54 44.2247 285.14 41.116C270.614 39.1942 268.466 43.4899 263.266 37.4985C258.009 31.5636 262.983 18.3938 279.996 19.4112ZM406.551 143.535C404.799 167.614 401.238 170.949 378.233 172.814C401.238 174.679 404.742 178.014 406.551 202.093C408.303 178.014 411.864 174.679 434.869 172.814C411.864 171.005 408.36 167.671 406.551 143.535ZM499.983 207.124C499.022 220.011 497.157 221.763 484.892 222.78C497.157 223.798 499.079 225.55 499.983 238.437C500.944 225.55 502.809 223.798 515.075 222.78C502.809 221.763 500.944 220.011 499.983 207.124ZM459.061 108.096C458.1 121.152 456.178 122.904 443.743 123.922C456.178 124.939 458.1 126.748 459.061 139.748C460.022 126.692 461.943 124.939 474.378 123.922C461.943 122.904 460.022 121.096 459.061 108.096ZM372.694 538.743C374.107 558.243 376.989 560.956 395.642 562.483C377.046 564.009 374.163 566.665 372.694 586.222C371.281 566.665 368.398 564.009 349.745 562.483C368.398 561.013 371.281 558.3 372.694 538.743ZM297.01 590.292C297.744 600.692 299.327 602.162 309.275 602.953C299.327 603.744 297.801 605.214 297.01 615.614C296.275 605.214 294.692 603.744 284.744 602.953C294.692 602.162 296.275 600.692 297.01 590.292ZM330.132 510.029C330.923 520.599 332.449 522.069 342.511 522.86C332.449 523.651 330.867 525.121 330.132 535.691C329.341 525.121 327.815 523.651 317.754 522.86C327.815 522.069 329.397 520.599 330.132 510.029ZM670.117 490.642C669.043 505.621 666.839 507.655 652.595 508.786C666.839 509.916 669.043 512.008 670.117 526.93C671.191 511.951 673.395 509.916 687.639 508.786C673.452 507.655 671.247 505.564 670.117 490.642ZM728.109 530.038C727.544 538.008 726.357 539.139 718.727 539.76C726.357 540.382 727.488 541.456 728.109 549.482C728.675 541.513 729.862 540.382 737.492 539.76C729.862 539.139 728.675 538.065 728.109 530.038ZM702.731 468.598C702.165 476.681 700.922 477.811 693.235 478.433C700.922 479.055 702.109 480.185 702.731 488.268C703.296 480.185 704.483 479.055 712.226 478.433C704.483 477.811 703.296 476.737 702.731 468.598Z" fill="white"/>
<path fill-rule="evenodd" clip-rule="evenodd" d="M511.627 611.94L374.672 550.726L305.319 572.939C305.319 572.939 296.275 589.5 296.162 609.849C294.636 623.018 301.758 635.623 313.514 641.671C331.432 650.771 349.802 658.854 368.115 666.993C377.103 670.95 385.977 675.528 395.133 679.145C403.273 682.367 406.664 679.711 414.012 676.376C428.312 670.102 515.018 635.114 518.975 627.71C520.953 624.036 522.705 619.683 521.914 617.083C521.01 614.031 515.979 613.975 511.627 611.94Z" fill="#61A0E0"/>
<path fill-rule="evenodd" clip-rule="evenodd" d="M513.775 606.343L376.821 545.129L306.054 575.99C306.054 575.99 299.949 589.895 298.31 604.308C296.784 617.478 303.906 630.083 315.663 636.131C333.581 645.231 351.95 653.314 370.264 661.453C379.251 665.409 388.125 669.988 397.282 673.605C405.421 676.827 408.812 674.17 416.16 670.836L506.993 630.874C511.628 628.839 518.58 627.539 520.784 622.622C523.723 616.065 521.745 610.13 513.775 606.343Z" fill="#87BEF5"/>
<path fill-rule="evenodd" clip-rule="evenodd" d="M645.529 116.291C645.529 109.056 638.237 105.156 631.511 106.173L152.31 191.636C149.371 193.275 147.506 196.44 147.506 199.832L154.289 589.161C154.628 607.7 153.441 605.157 168.476 611.996C169.267 612.335 169.889 612.448 170.793 612.674L644.737 482.22L645.529 116.291Z" fill="#87BEF5"/>
<path fill-rule="evenodd" clip-rule="evenodd" d="M653.896 116.291C653.896 109.056 646.604 105.156 639.878 106.173L160.677 191.636C157.738 193.275 155.873 196.44 155.873 199.832L162.825 599.561C162.825 618.327 177.013 613.014 192.274 608.831L627.895 489.115C656.27 481.541 653.104 470.406 653.161 448.702L653.896 116.291Z" fill="#A4D0FC"/>
<path fill-rule="evenodd" clip-rule="evenodd" d="M163.107 197.457C162.485 198.079 162.09 198.87 162.09 199.718L169.212 559.882L647.056 428.579L647.847 116.234C647.847 112.843 643.495 111.825 641.008 112.164L163.107 197.457Z" fill="#DFEDFA"/>
<path fill-rule="evenodd" clip-rule="evenodd" d="M636.148 135.396L421.983 175.753V266.359L636.148 223.458V135.396ZM417.744 176.544L186.961 220.01L188.883 313.047L417.687 267.207V176.544H417.744ZM188.996 318.36L417.687 272.52V464.245L193.348 525.686L188.996 318.36ZM422.039 463.058V271.672L636.204 228.771V404.388L422.039 463.058Z" fill="white"/>
<path opacity="0.33" fill-rule="evenodd" clip-rule="evenodd" d="M244.557 539.138L333.411 514.777L442.33 147.661L356.189 163.035L244.557 539.138Z" fill="white"/>
<path opacity="0.33" fill-rule="evenodd" clip-rule="evenodd" d="M358.055 507.995L402.482 495.786L509.366 135.679L466.296 143.366L358.055 507.995Z" fill="white"/>
<path opacity="0.33" fill-rule="evenodd" clip-rule="evenodd" d="M432.947 487.42L477.374 475.211L581.941 122.734L538.871 130.421L432.947 487.42Z" fill="white"/>
<path fill-rule="evenodd" clip-rule="evenodd" d="M227.711 157.383L596.579 246.237C596.239 246.971 596.805 244.371 595.787 248.611C594.77 252.793 598.613 263.815 606.187 265.624C613.761 267.433 622.183 259.406 623.201 255.224C624.218 251.041 623.54 253.585 623.596 252.793L736.642 280.037C740.429 280.942 742.747 284.785 741.842 288.572L692.95 491.602C692.046 495.389 688.202 497.707 684.415 496.802L571.369 469.558C571.708 468.824 571.143 471.424 572.161 467.184C573.178 463.002 569.334 451.98 561.76 450.171C554.186 448.362 545.764 456.388 544.747 460.571C543.73 464.754 544.408 462.21 544.351 463.002L175.427 374.204C171.64 373.3 169.322 369.456 170.227 365.669L219.119 162.639C220.08 158.852 223.923 156.478 227.711 157.383Z" fill="url(#paint0_linear_923_951)"/>
<path fill-rule="evenodd" clip-rule="evenodd" d="M584.315 255.45L229.578 170.044L182.89 363.804L537.627 449.21C540.736 445.367 545.032 442.202 549.667 440.28C554.528 438.245 559.784 437.51 564.476 438.641C569.224 439.771 573.576 442.823 576.967 446.837C580.246 450.68 582.62 455.484 583.637 460.289L682.552 484.085L729.24 290.325L630.325 266.529C627.216 270.372 622.92 273.538 618.285 275.459C613.424 277.494 608.168 278.229 603.476 277.098C598.728 275.968 594.376 272.916 590.985 268.903C587.707 265.059 585.333 260.255 584.315 255.45ZM228.73 166.37L586.124 252.455L587.198 252.737L587.367 253.811C588.102 258.389 590.363 263.024 593.528 266.755C596.468 270.259 600.198 272.916 604.211 273.877C608.224 274.838 612.746 274.159 616.985 272.407C621.451 270.542 625.577 267.433 628.346 263.703L629.025 262.798L630.099 263.081L731.67 287.555L733.309 287.951L732.914 289.59L685.491 486.572L685.095 488.211L683.456 487.816L581.885 463.341L580.811 463.059L580.641 461.985C579.906 457.406 577.645 452.771 574.48 449.041C571.541 445.537 567.811 442.88 563.797 441.919C559.784 440.958 555.262 441.636 551.023 443.389C546.558 445.254 542.432 448.363 539.662 452.15L538.984 453.054L537.91 452.771L180.516 366.631L178.877 366.235L179.273 364.596L226.695 167.614L227.091 165.975L228.73 166.37Z" fill="#FFE2DC"/>
<path d="M603.984 273.424L563.344 442.144" stroke="white" stroke-width="0.693" stroke-miterlimit="2.613" stroke-linecap="round" stroke-dasharray="1.38 2.08"/>
<path fill-rule="evenodd" clip-rule="evenodd" d="M611.842 450.906L612.52 448.023L660.564 459.61L659.886 462.493L611.842 450.906ZM631.738 368.496L632.416 365.613L680.46 377.2L679.782 380.083L631.738 368.496ZM632.755 364.03L680.8 375.618L681.139 374.204L633.094 362.617L632.755 364.03ZM633.377 361.6L681.421 373.187L681.817 371.435L633.773 359.848L633.377 361.6ZM633.999 358.887L682.043 370.474L682.439 368.722L634.394 357.135L633.999 358.887ZM634.677 356.23L682.721 367.817L683.117 366.065L635.073 354.478L634.677 356.23ZM635.299 353.517L635.694 351.765L683.739 363.352L683.343 365.104L635.299 353.517ZM636.09 350.182L636.768 347.3L684.813 358.887L684.134 361.769L636.09 350.182ZM637.164 345.773L637.503 344.36L685.548 355.948L685.208 357.361L637.164 345.773ZM637.786 343.286L638.181 341.534L686.226 353.121L685.83 354.874L637.786 343.286ZM638.408 340.63L686.452 352.217L686.848 350.465L638.803 338.878L638.408 340.63ZM639.086 337.973L687.13 349.56L687.526 347.808L639.481 336.221L639.086 337.973ZM639.708 335.26L687.752 346.847L688.148 345.095L640.103 333.508L639.708 335.26ZM640.499 331.925L688.543 343.513L689.221 340.63L641.177 329.043L640.499 331.925ZM641.573 327.517L641.912 326.103L689.956 337.691L689.617 339.104L641.573 327.517ZM642.195 325.03L642.59 323.277L690.635 334.865L690.239 336.617L642.195 325.03ZM642.816 322.373L643.212 320.621L691.256 332.208L690.861 333.96L642.816 322.373ZM643.438 319.66L643.834 317.908L691.878 329.495L691.482 331.247L643.438 319.66ZM644.116 317.003L692.161 328.591L692.556 326.838L644.512 315.251L644.116 317.003ZM644.908 313.668L692.952 325.256L693.63 322.373L645.586 310.786L644.908 313.668ZM645.982 309.203L694.026 320.79L694.365 319.377L646.321 307.79L645.982 309.203ZM646.547 306.773L694.591 318.36L694.987 316.608L646.942 305.02L646.547 306.773ZM647.225 304.06L647.621 302.307L695.665 313.895L695.269 315.647L647.225 304.06ZM647.847 301.403L648.242 299.651L696.287 311.238L695.891 312.99L647.847 301.403ZM648.525 298.69L648.921 296.938L696.965 308.525L696.569 310.277L648.525 298.69ZM649.316 295.299L649.995 292.416L698.039 304.003L697.361 306.886L649.316 295.299ZM612.916 446.497L660.96 458.084L661.299 456.671L613.255 445.084L612.916 446.497ZM613.537 444.01L661.582 455.597L661.978 453.845L613.933 442.258L613.537 444.01ZM614.159 441.354L662.204 452.941L662.599 451.188L614.555 439.601L614.159 441.354ZM614.837 438.64L662.882 450.228L663.278 448.475L615.233 436.888L614.837 438.64ZM615.459 435.984L615.855 434.232L663.899 445.819L663.504 447.571L615.459 435.984ZM616.251 432.649L616.929 429.766L664.973 441.354L664.295 444.236L616.251 432.649ZM617.324 428.24L617.664 426.827L665.708 438.414L665.369 439.827L617.324 428.24ZM617.946 425.753L618.342 424.001L666.386 435.588L665.991 437.34L617.946 425.753ZM618.568 423.097L666.612 434.684L667.008 432.932L618.964 421.344L618.568 423.097ZM619.19 420.384L667.234 431.971L667.63 430.219L619.585 418.631L619.19 420.384ZM619.868 417.727L667.912 429.314L668.308 427.562L620.264 415.975L619.868 417.727ZM620.659 414.392L668.704 425.979L669.382 423.097L621.338 411.509L620.659 414.392ZM621.733 409.927L622.072 408.514L670.117 420.101L669.778 421.514L621.733 409.927ZM622.299 407.496L622.694 405.744L670.739 417.331L670.343 419.084L622.299 407.496ZM622.977 404.783L623.372 403.031L671.417 414.618L671.021 416.37L622.977 404.783ZM623.599 402.127L623.994 400.374L672.039 411.962L671.643 413.714L623.599 402.127ZM624.277 399.414L672.321 411.001L672.717 409.249L624.672 397.661L624.277 399.414ZM625.068 396.079L673.112 407.666L673.791 404.783L625.746 393.196L625.068 396.079ZM626.142 391.67L674.186 403.257L674.526 401.844L626.481 390.257L626.142 391.67ZM626.707 389.183L674.752 400.77L675.147 399.018L627.103 387.431L626.707 389.183ZM627.386 386.526L627.781 384.774L675.826 396.361L675.43 398.114L627.386 386.526ZM628.007 383.813L628.403 382.061L676.447 393.648L676.052 395.4L628.007 383.813ZM628.686 381.157L676.73 392.744L677.126 390.992L629.081 379.405L628.686 381.157ZM629.477 377.765L677.521 389.353L678.2 386.47L630.155 374.883L629.477 377.765ZM630.607 372.961L678.652 384.548L679.33 381.665L631.286 370.078L630.607 372.961ZM650.503 290.551L698.548 302.138L699.226 299.255L651.182 287.668L650.503 290.551Z" fill="#FFE2DC"/>
<path fill-rule="evenodd" clip-rule="evenodd" d="M671.472 616.913H853.815C862.519 616.913 869.867 618.213 871.506 626.465H707.929C703.295 626.465 699.508 630.252 699.508 634.887V663.77C699.508 668.405 703.295 672.192 707.929 672.192H870.998C868.68 679.484 861.841 680.614 853.815 680.614H671.472C661.581 680.614 653.441 672.532 653.441 662.583V634.944C653.441 625.052 661.524 616.913 671.472 616.913Z" fill="url(#paint1_linear_923_951)"/>
<path fill-rule="evenodd" clip-rule="evenodd" d="M703.011 553.269H885.354C894.058 553.269 901.406 554.569 903.046 562.821H739.468C734.834 562.821 731.047 566.608 731.047 571.243V600.126C731.047 604.761 734.834 608.548 739.468 608.548H902.537C900.219 615.839 893.38 616.97 885.354 616.97H703.011C693.12 616.97 684.98 608.887 684.98 598.939V571.299C685.037 561.351 693.12 553.269 703.011 553.269Z" fill="#61A0E0"/>
<path fill-rule="evenodd" clip-rule="evenodd" d="M862.35 672.193C854.663 657.78 854.324 642.518 861.446 626.466H707.93C703.295 626.466 699.508 630.253 699.508 634.888V663.771C699.508 668.406 703.295 672.193 707.93 672.193H862.35ZM893.946 608.548C886.259 594.135 885.92 578.874 893.042 562.821H739.526C734.891 562.821 731.104 566.608 731.104 571.243V600.126C731.104 604.761 734.891 608.548 739.526 608.548H893.946Z" fill="#EFF9FC"/>
<path fill-rule="evenodd" clip-rule="evenodd" d="M714.938 633.757H858.732C858.167 635.566 857.714 637.374 857.375 639.127H714.938C713.468 639.127 712.225 637.94 712.225 636.413C712.225 634.944 713.468 633.757 714.938 633.757ZM859.24 665.24C858.619 663.431 858.053 661.679 857.601 659.87H714.938C713.468 659.87 712.225 661.057 712.225 662.583C712.225 664.053 713.412 665.297 714.938 665.297H859.24V665.24ZM856.471 652.183C856.358 650.375 856.358 648.622 856.414 646.814H714.938C713.468 646.814 712.225 648.001 712.225 649.527C712.225 650.996 713.412 652.24 714.938 652.24H856.471V652.183Z" fill="#FBBFA8"/>
<path fill-rule="evenodd" clip-rule="evenodd" d="M746.535 570.057H890.329C889.764 571.865 889.312 573.674 888.973 575.426H746.535C745.066 575.426 743.822 574.239 743.822 572.713C743.822 571.3 745.009 570.057 746.535 570.057ZM890.838 601.596C890.216 599.788 889.651 598.035 889.199 596.227H746.535C745.066 596.227 743.822 597.414 743.822 598.94C743.822 600.409 745.009 601.653 746.535 601.653H890.838V601.596ZM888.012 588.54C887.899 586.731 887.899 584.979 887.955 583.17H746.479C745.009 583.17 743.766 584.357 743.766 585.883C743.766 587.353 744.953 588.596 746.479 588.596H888.012V588.54Z" fill="#71AFED"/>
<path fill-rule="evenodd" clip-rule="evenodd" d="M794.467 545.525C794.297 543.998 794.862 541.964 794.636 539.533C792.997 520.485 789.38 477.471 789.38 477.471C789.38 477.471 785.31 443.388 785.027 421.796C789.38 421.4 793.675 420.666 797.915 419.592C807.128 417.274 813.232 413.487 821.993 409.248C826.798 426.827 835.615 459.158 835.615 459.158C835.615 459.158 835.615 466.053 844.772 466.053C852.798 466.053 886.203 494.032 892.816 498.158C891.969 500.193 889.821 502.172 888.803 504.15C878.177 495.445 823.519 475.493 823.519 475.493L808.71 437.905C808.71 437.905 804.245 484.028 807.863 487.645C811.48 491.206 801.476 542.925 801.476 545.525C801.419 545.864 797.236 545.468 794.467 545.525Z" fill="#FFB27D"/>
<path fill-rule="evenodd" clip-rule="evenodd" d="M809.784 428.126C809.784 428.126 806.563 479.11 808.202 482.106C809.784 485.101 810.971 490.075 809.784 502.68C808.597 515.284 804.98 537.272 804.98 537.272L793.167 537.667L788.362 477.527L784.236 421.739L784.123 420.552L800.119 408.569L809.784 428.126Z" fill="#3B5BB3"/>
<path fill-rule="evenodd" clip-rule="evenodd" d="M885.751 490.132L880.551 499.514C880.551 499.514 833.467 484.027 823.576 476.736C819.789 473.966 803.962 435.757 803.962 435.757L791.527 420.948L791.414 412.752L818.149 400.995C818.149 400.995 827.871 411.961 829.793 416.369C834.541 427.391 837.763 463.735 837.763 463.735C837.763 463.735 837.367 462.322 846.354 464.753C855.341 467.127 885.751 490.132 885.751 490.132Z" fill="#4567C6"/>
<path fill-rule="evenodd" clip-rule="evenodd" d="M883.886 501.324C883.886 501.324 887.051 499.289 887.39 498.102C887.786 496.915 886.881 493.976 888.181 493.298C889.481 492.62 897.79 495.333 899.034 496.294C900.56 497.481 901.182 499.289 900.786 500.476C900.39 501.663 889.312 521.729 886.994 524.273C884.677 526.816 881.738 521.22 883.49 517.716C885.186 514.211 883.207 506.807 883.886 501.324ZM793.958 540.042C793.958 540.042 797.293 541.738 798.48 541.512C799.667 541.229 801.814 539.025 803.001 539.816C804.245 540.608 805.941 549.199 805.771 550.725C805.545 552.647 804.245 554.06 803.001 554.286C801.758 554.569 778.866 554.851 775.531 554.06C772.14 553.269 775.588 547.956 779.488 547.73C783.388 547.56 788.814 542.19 793.958 540.042Z" fill="#284191"/>
<path fill-rule="evenodd" clip-rule="evenodd" d="M727.148 377.652C743.484 394.044 752.131 403.709 766.601 408.626C769.71 405.857 771.801 401.844 772.875 396.7C776.436 404.783 780.223 412.696 784.18 420.553C792.376 423.209 804.359 422.475 820.242 418.292L822.107 410.944C823.294 410.096 826.798 410.209 829.172 411.679C836.69 397.491 840.194 384.378 840.42 372.791C829.85 353.064 819.733 338.312 810.067 328.534C806.393 326.216 799.837 325.255 790.341 325.707C779.715 337.464 773.271 340.629 771.01 335.203C767.732 338.255 763.606 342.89 758.632 349.108C755.127 355.665 755.636 368.778 760.158 388.504C750.662 382.287 740.997 376.408 730.257 372.169C729.014 373.243 727.827 375.108 727.148 377.652ZM822.276 404.161C812.611 393.252 807.58 376.691 807.185 354.421C813.402 362.617 819.789 370.643 826.176 378.443C824.029 381.043 822.729 389.578 822.276 404.161Z" fill="#F57A44"/>
<path fill-rule="evenodd" clip-rule="evenodd" d="M772.875 396.7C767.732 384.434 764.114 374.034 762.136 365.612C765.754 383.869 766.997 396.474 765.754 403.539C763.38 404.557 760.101 404.274 755.297 403.2C758.914 405.461 762.588 407.326 766.601 408.626C769.767 405.8 771.858 401.844 772.875 396.7ZM822.163 410.887C822.05 408.796 822.107 406.535 822.333 404.161C812.668 393.252 807.637 376.691 807.241 354.421C803.172 376.578 807.976 395.909 821.768 412.526L822.163 410.887Z" fill="#F06A30"/>
<path fill-rule="evenodd" clip-rule="evenodd" d="M773.779 375.278C782.314 371.265 792.884 367.647 805.884 365.273C806.054 361.769 806.506 358.151 807.184 354.477C786.779 359.451 772.818 364.934 765.244 370.869L773.779 375.278ZM808.88 389.578C807.241 389.974 805.601 390.482 803.849 390.991L804.415 391.274L810.745 394.609C810.067 392.969 809.445 391.274 808.88 389.578ZM796.219 406.704L785.536 401.109C782.144 402.635 779.375 404.217 777.114 405.913C778.357 408.626 779.658 411.283 780.958 413.939C784.914 411.452 790.001 409.022 796.219 406.704ZM790.793 384.208L780.845 379.008C788.419 376.069 796.727 373.808 805.828 372.225C805.997 375.899 806.393 379.46 807.128 382.965C802.662 384.095 798.593 385.226 794.919 386.413L790.793 384.208ZM765.018 346.055C772.818 340.855 782.484 336.899 794.071 334.129C791.753 332.433 789.153 331.077 786.327 330.003C778.64 337.634 773.666 339.668 771.462 336.107C768.805 339.386 766.601 342.721 765.018 346.055ZM799.61 339.047C801.419 341.647 803.906 345.321 805.149 348.599C783.105 354.082 771.914 358.038 762.305 366.291C761.627 362.956 761.627 357.756 762.022 354.477C772.592 347.016 785.592 342.325 799.61 339.047Z" fill="#F06A30"/>
<path fill-rule="evenodd" clip-rule="evenodd" d="M785.424 343.229C788.476 337.407 790.285 331.981 790.737 327.064C789.324 325.538 787.345 324.125 786.158 323.898C782.541 330.512 780.11 334.299 777.51 336.955L777.454 337.012C777.397 336.899 777.284 336.729 777.228 336.616C775.645 334.073 773.61 331.133 772.254 328.081C771.067 329.494 771.01 331.19 770.615 332.999C770.275 336.842 770.897 341.081 772.593 345.716C773.158 344.134 773.836 342.721 774.515 341.421C775.419 339.668 776.436 338.199 777.454 337.012C778.867 337.69 780.28 338.594 781.693 339.725C782.937 340.742 784.18 341.873 785.424 343.229Z" fill="#F06A30"/>
<path fill-rule="evenodd" clip-rule="evenodd" d="M786.101 323.955C785.084 323.22 784.066 322.09 783.105 320.62C783.162 319.659 783.162 318.529 783.105 317.116C787.571 311.69 787.514 308.694 782.936 308.072C782.257 308.75 781.636 310.446 781.127 313.159C780.166 313.385 780.392 310.616 779.601 309.824C779.601 305.529 778.301 304.568 777.905 301.968C773.949 298.689 766.77 299.481 758.631 303.042C760.044 311.068 762.587 330.229 771.914 327.064L772.253 328.081C773.609 331.133 775.644 334.073 777.227 336.616L777.509 336.955C780.053 334.412 782.483 330.625 786.101 323.955Z" fill="#FFB27D"/>
<path fill-rule="evenodd" clip-rule="evenodd" d="M759.197 303.607C767.336 300.046 773.949 298.746 777.849 302.025C778.245 304.625 779.319 305.925 779.376 310.277C780.167 311.068 780.11 313.442 781.071 313.216C781.58 310.503 782.202 308.807 782.88 308.129C787.458 308.751 787.515 311.803 783.05 317.173C783.106 318.586 783.106 319.716 783.05 320.677C791.189 312.368 791.754 297.446 781.184 293.377C776.323 282.411 762.701 297.333 752.81 294.281C750.888 299.764 756.597 304.229 759.197 303.607Z" fill="#284191"/>
<path fill-rule="evenodd" clip-rule="evenodd" d="M778.132 324.577C776.662 325.425 773.723 326.668 771.914 327.121L772.253 328.138C772.536 328.76 772.818 329.325 773.101 329.89C773.101 329.89 773.158 329.89 773.158 329.834C775.645 328.138 777.34 326.386 778.132 324.577Z" fill="#F08261"/>
<path fill-rule="evenodd" clip-rule="evenodd" d="M783.162 296.994C782.032 296.033 781.693 295.072 782.145 294.054C783.954 293.15 785.649 293.15 787.232 294.167C786.271 294.167 784.915 295.128 783.162 296.994Z" fill="#284191"/>
<path fill-rule="evenodd" clip-rule="evenodd" d="M780.222 293.941C781.239 294.62 782.03 294.62 782.596 293.941C782.539 292.133 781.917 290.72 780.674 289.702C781.013 290.55 780.843 291.963 780.222 293.941ZM765.017 301.402C764.282 298.972 762.926 297.728 760.947 297.728C758.178 299.989 757.104 302.759 757.612 305.981C758.347 304.398 760.778 302.872 765.017 301.402ZM768.408 291.115C768.295 292.246 769.2 293.489 767.787 294.224C768.013 299.028 762.813 293.885 762.417 292.133C763.152 292.472 765.13 292.133 768.408 291.115Z" fill="#284191"/>
<path fill-rule="evenodd" clip-rule="evenodd" d="M594.998 292.415C608.959 265.68 641.911 255.393 668.647 269.354C692.726 281.959 703.521 310.05 695.099 335.034L695.495 335.203C697.021 335.994 697.586 337.86 696.795 339.386L691.652 349.164C690.86 350.69 688.995 351.256 687.469 350.464L687.073 350.295C671.36 371.434 642.138 378.669 618.059 366.065C591.38 352.103 581.036 319.094 594.998 292.415ZM601.724 295.92C589.741 318.925 598.615 347.242 621.563 359.282C644.568 371.265 672.886 362.391 684.925 339.442C696.908 316.438 688.034 288.12 665.086 276.08C642.081 264.041 613.763 272.971 601.724 295.92Z" fill="#1E77D1"/>
<path d="M696.78 339.383L691.648 349.201L716.344 362.109L721.476 352.291L696.78 339.383Z" fill="#61A0E0"/>
<path fill-rule="evenodd" clip-rule="evenodd" d="M704.766 356.004L709.909 346.225C710.701 344.699 712.566 344.134 714.092 344.925L736.588 356.682H736.645L785.254 382.061L798.707 389.069L847.316 414.505C848.843 415.296 849.408 417.161 848.616 418.687L843.473 428.466C842.682 429.992 840.816 430.557 839.29 429.766L816.794 418.009H816.738L768.128 392.63L754.676 385.621L706.066 360.243C704.596 359.395 703.975 357.53 704.766 356.004Z" fill="#1E77D1"/>
<path opacity="0.35" fill-rule="evenodd" clip-rule="evenodd" d="M665.086 276.08C688.091 288.063 696.965 316.438 684.925 339.442C672.943 362.447 644.568 371.321 621.563 359.282C598.559 347.299 589.685 318.925 601.724 295.92C613.763 272.972 642.081 264.041 665.086 276.08Z" fill="white"/>
<path opacity="0.35" fill-rule="evenodd" clip-rule="evenodd" d="M664.746 359.452L596.41 318.02C596.41 316.607 596.467 315.194 596.58 313.838L668.477 357.36C667.233 358.151 665.99 358.83 664.746 359.452ZM682.607 343.399C686.677 337.238 689.277 330.116 690.068 322.542L617.437 278.567C611.163 282.75 606.019 288.346 602.402 294.846L682.607 343.399ZM671.359 355.382C673.62 353.686 675.712 351.821 677.633 349.786L599.067 302.194C598.162 304.794 597.428 307.564 597.032 310.333L671.359 355.382Z" fill="#FEFEFE"/>
<path fill-rule="evenodd" clip-rule="evenodd" d="M828.436 417.444C828.606 414.222 829.115 411.396 830.075 409.022C828.549 406.648 825.384 405.065 823.971 405.348L820.24 409.87C816.171 412.131 813.119 414.279 810.971 416.313C813.458 416.992 815.38 416.709 816.736 415.466C815.323 417.896 814.758 419.422 814.927 420.044C820.24 424.283 823.858 425.809 825.78 424.622C827.645 421.514 828.549 419.083 828.436 417.444Z" fill="#FFB27D"/>
<path fill-rule="evenodd" clip-rule="evenodd" d="M839.628 382.004C838.159 391.16 834.824 401.108 829.228 411.678C827.42 410.435 822.954 407.552 821.598 408.287C822.445 406.309 822.106 406.648 822.332 404.217C822.672 393.591 823.463 386.186 824.65 381.947C828.493 382.23 833.524 382.23 839.628 382.004Z" fill="#F57A44"/>
<path fill-rule="evenodd" clip-rule="evenodd" d="M727.149 377.652C726.64 377.143 724.605 375.108 722.514 373.187C719.518 373.074 715.392 370.304 714.657 367.93C714.261 364.708 713.018 363.521 715.448 361.543C716.409 361.486 718.501 362.673 720.648 365.16C720.535 367.421 722.909 368.156 724.435 368.947C726.414 370.247 725.001 369.23 727.262 370.7C728.222 371.547 729.636 372 730.144 372.452C728.957 373.639 727.827 375.108 727.149 377.652Z" fill="#FFB27D"/>
<path fill-rule="evenodd" clip-rule="evenodd" d="M83.0128 418.632C83.0128 418.632 68.2039 392.179 64.5864 386.583C60.9689 380.987 51.5861 358.604 51.247 357.757C50.9079 356.852 57.6906 346.339 56.221 345.943C54.6949 345.604 52.9992 351.539 51.4166 350.804C49.7774 350.069 45.086 335.826 44.1251 336.504C42.3729 337.804 46.6687 345.378 45.7643 345.83C44.8599 346.282 42.0338 337.521 40.2251 337.804C38.4163 338.087 43.673 345.83 43.1643 346.508C42.6555 347.187 37.2293 339.895 36.2119 341.421C35.7032 342.269 41.2425 347.808 40.1685 348.317C39.0946 348.826 34.1771 345.265 33.6684 346.282C33.1597 347.3 38.2468 348.713 39.7729 351.539C41.299 354.309 43.899 355.552 44.973 360.696C46.0469 365.839 47.6295 384.492 53.1688 393.818C58.6515 403.144 70.7474 423.719 70.7474 423.719L83.0128 418.632ZM148.636 546.147C148.636 546.147 147.449 544.621 147.053 544.112C146.601 543.491 145.527 541.512 145.527 541.512C145.527 541.512 141.91 534.503 142.475 534.277C143.04 534.051 144.284 534.899 144.679 535.295C145.075 535.634 145.527 536.03 145.923 536.369C146.318 536.708 146.884 536.764 147.336 536.312C147.788 535.86 146.601 534.164 146.092 533.599C144.453 531.96 139.14 528.512 138.631 528.173C138.01 527.721 133.996 514.381 132.244 509.916C129.588 502.511 127.27 494.824 126.988 494.033L125.348 460.515L112.857 456.332C112.857 456.332 114.157 493.581 114.44 495.39C114.553 496.294 122.014 512.912 122.014 512.912C126.196 520.881 129.87 527.89 130.549 529.247C130.549 529.247 131.453 533.882 131.849 536.877C132.244 539.873 133.827 542.417 134.053 543.264C134.109 543.377 134.788 546.26 136.823 549.199C138.575 551.743 138.066 548.521 138.066 548.521C138.066 548.521 135.636 543.151 136.088 543.038C136.427 542.925 137.614 545.921 139.536 548.804C140.044 549.538 140.553 550.273 141.005 550.952C142.192 552.704 143.605 552.421 142.644 550.386C142.305 549.651 141.684 548.521 141.175 547.73C140.61 546.882 140.327 545.921 139.931 545.13C139.14 543.604 138.575 542.473 138.631 542.473C138.744 542.473 138.801 542.077 139.366 542.812C140.044 543.717 141.005 545.978 142.079 547.278C142.701 548.012 143.888 549.595 143.888 549.595C143.888 549.595 146.092 551.969 146.262 551.856C147.166 551.347 146.036 549.199 145.075 548.351C144.736 547.504 143.436 545.864 143.436 545.864C143.436 545.864 141.57 541.964 142.079 541.682C142.531 541.456 148.862 549.878 149.71 549.312C150.445 548.804 148.636 546.147 148.636 546.147Z" fill="#FFB27D"/>
<path fill-rule="evenodd" clip-rule="evenodd" d="M127.213 415.579C127.496 408.288 126.422 401.053 123.087 394.27C122.861 387.6 117.378 386.018 112.517 385.961C112.404 385.961 112.291 385.848 112.235 385.792C111.726 385.396 110.37 384.153 109.635 384.04C104.604 383.192 100.252 384.039 95.4475 389.013C90.7561 393.874 90.6431 395.683 89.3996 402.296C82.7864 438.188 65.3208 470.519 90.3039 490.811C99.178 498.442 97.0301 485.102 97.1997 483.689C102.909 480.58 107.261 475.437 110.37 469.785C114.778 461.758 117.604 452.489 120.713 443.954C123.992 434.797 126.761 425.301 127.213 415.579Z" fill="#284191"/>
<path fill-rule="evenodd" clip-rule="evenodd" d="M63.2295 650.997C63.2295 650.997 61.8165 660.832 59.386 663.997C58.5381 665.071 57.0685 666.428 56.1077 668.35C54.5815 671.345 55.4294 675.811 56.5598 678.241C57.1251 679.485 56.5033 679.485 57.8599 679.88C61.7599 681.067 65.9426 679.032 67.5818 675.302C68.4861 673.211 69.334 670.441 69.5036 666.937C69.8992 658.006 72.7254 653.484 72.7254 653.484L63.2295 650.997ZM105.961 655.462C105.961 655.462 106.865 666.541 106.13 670.158C105.735 672.08 103.643 676.037 104.604 677.845C105.565 679.654 106.696 680.106 106.696 680.106L131.961 680.502C133.318 680.502 132.413 679.654 131.34 678.806C129.531 677.45 128.061 676.602 122.239 673.776C121.844 673.606 120.487 672.702 119.978 672.419C118.735 671.628 117.435 670.441 116.361 669.254C114.552 667.219 114.383 657.497 114.383 657.497L105.961 655.462Z" fill="#FFB27D"/>
<path fill-rule="evenodd" clip-rule="evenodd" d="M125.687 508.051C125.687 508.051 128.852 526.082 126.761 537.838C124.669 549.652 114.665 659.08 114.665 659.08L103.53 659.702C103.53 659.702 101.212 613.975 101.608 607.644C102.004 601.257 105.338 590.631 105.338 590.631L104.208 553.721L118.282 505.225L125.687 508.051Z" fill="#3B5BB3"/>
<path fill-rule="evenodd" clip-rule="evenodd" d="M93.0171 504.263C93.0171 504.263 84.2561 517.433 82.1648 528.342C80.0734 539.251 83.6909 572.712 79.6777 587.013C77.5299 594.756 69.2776 606.682 68.034 616.687C66.7905 626.692 61.873 652.862 61.873 652.862L73.008 655.066L98.839 589.726L119.131 530.659L124.331 500.25L93.0171 504.263Z" fill="#4567C6"/>
<path fill-rule="evenodd" clip-rule="evenodd" d="M100.084 429.37C100.084 429.37 88.4966 428.635 83.9182 433.609C79.3399 438.583 94.0923 478.093 94.9402 484.48C95.788 490.867 90.701 507.767 90.701 507.767C90.701 507.767 117.945 513.25 125.745 508.107C125.745 508.107 126.593 462.38 125.745 457.858C124.897 453.336 117.945 434.853 116.306 433.044C114.554 431.179 100.084 429.37 100.084 429.37Z" fill="#61A0E0"/>
<path fill-rule="evenodd" clip-rule="evenodd" d="M103.927 413.883C103.927 413.883 103.871 414.222 103.758 414.788C103.249 417.557 101.271 426.827 99.9141 429.37C98.2749 432.423 105.453 442.201 112.406 441.014C114.44 440.675 110.653 432.027 110.823 431.123C111.162 429.37 111.671 426.997 112.123 424.51C112.406 423.153 112.688 421.74 112.914 420.383C113.649 416.653 114.271 413.601 114.271 413.601L103.927 413.883Z" fill="#FFB27D"/>
<path fill-rule="evenodd" clip-rule="evenodd" d="M103.757 414.788C103.87 414.222 103.927 413.883 103.927 413.883L114.327 413.601C114.327 413.601 113.705 416.653 112.97 420.383C112.688 421.683 112.462 423.096 112.179 424.453C110.596 424.227 108.901 423.436 107.205 421.966C105.396 420.383 104.153 418.462 103.475 416.37C103.588 415.805 103.701 415.24 103.757 414.788Z" fill="#F08261"/>
<path fill-rule="evenodd" clip-rule="evenodd" d="M110.934 390.37C110.934 390.37 106.017 389.804 102.964 393.761C99.9122 397.718 96.5774 409.983 104.208 416.596C111.839 423.266 119.356 415.692 120.486 407.722C121.278 399.866 120.6 390.539 110.934 390.37Z" fill="#FFB27D"/>
<path fill-rule="evenodd" clip-rule="evenodd" d="M122.748 407.61C121.844 409.362 120.318 410.323 119.357 409.814C118.396 409.249 118.34 407.383 119.244 405.631C120.148 403.879 121.674 402.918 122.635 403.427C123.596 403.992 123.653 405.857 122.748 407.61Z" fill="#FFB27D"/>
<path fill-rule="evenodd" clip-rule="evenodd" d="M111.501 389.07C111.501 389.07 104.944 400.713 100.309 401.222C95.6178 401.731 94.9961 407.948 94.9961 407.948C94.9961 407.948 96.6918 393.705 101.27 390.935C105.905 388.222 111.501 389.07 111.501 389.07Z" fill="#284191"/>
<path fill-rule="evenodd" clip-rule="evenodd" d="M68.2607 673.38C62.2127 674.51 58.1431 670.95 56.0517 668.293C54.5256 671.289 53.7343 675.754 54.9213 678.241C55.9387 680.445 58.8214 680.332 61.1388 680.445C63.5693 680.558 65.4345 679.202 66.678 677.054C67.1867 676.093 67.752 674.85 68.2607 673.38ZM119.979 672.532C113.309 674.228 108.392 673.097 105.622 671.967C104.887 674.002 103.983 676.489 104.492 677.958C105.114 679.767 105.961 680.163 106.753 680.163C112.857 680.332 129.079 680.558 133.714 680.615C134.336 680.615 134.731 679.88 134.279 679.371C133.092 677.958 120.488 672.815 119.979 672.532Z" fill="#163560"/>
<path fill-rule="evenodd" clip-rule="evenodd" d="M101.497 404.161C101.892 406.253 101.101 408.118 99.8009 408.4C98.5009 408.683 97.0878 407.213 96.6921 405.179C96.2965 403.144 97.0878 401.222 98.3878 400.939C99.7444 400.6 101.101 402.07 101.497 404.161Z" fill="#FFB27D"/>
<path fill-rule="evenodd" clip-rule="evenodd" d="M78.8859 410.04C78.8859 410.04 95.2775 427.619 97.708 434.684C100.138 441.749 95.334 451.923 88.6644 452.319C82.0512 452.771 67.2422 421.118 67.2422 421.118L78.8859 410.04Z" fill="#4F8ECC"/>
<path fill-rule="evenodd" clip-rule="evenodd" d="M110.935 388.731C112.63 389.183 113.648 388.788 114.044 387.657C113.196 385.34 111.726 383.757 109.635 382.966C110.426 383.927 110.878 385.848 110.935 388.731Z" fill="#284191"/>
<path fill-rule="evenodd" clip-rule="evenodd" d="M113.084 389.014C113.48 389.296 113.819 388.844 114.045 387.714C114.045 385.453 113.762 384.04 113.253 383.475C113.423 384.266 113.367 386.131 113.084 389.014ZM110.371 388.222C111.727 387.77 112.575 388.166 112.914 389.296C112.236 391.614 110.993 393.197 109.297 393.988C109.975 393.027 110.314 391.105 110.371 388.222Z" fill="#284191"/>
<path fill-rule="evenodd" clip-rule="evenodd" d="M112.348 389.127C112.743 388.957 113.082 389.24 113.309 389.861C113.309 391.105 113.026 391.84 112.517 392.179C112.63 391.727 112.574 390.709 112.348 389.127Z" fill="#284191"/>
<path fill-rule="evenodd" clip-rule="evenodd" d="M108.391 442.597C108.278 442.597 108.165 442.484 108.165 442.315C108.165 442.145 108.278 441.976 108.391 441.976C110.539 441.806 112.687 441.806 114.891 441.863C115.004 441.863 115.117 442.032 115.117 442.202C115.117 442.371 115.004 442.484 114.891 442.484C112.687 442.428 110.539 442.428 108.391 442.597ZM99.1776 429.202C99.2341 428.975 99.4602 428.919 99.6298 428.975C99.8559 429.032 99.9124 429.258 99.8559 429.428C99.5733 430.389 99.7994 431.519 100.478 432.819C101.212 434.176 102.399 435.702 104.039 437.341C105.169 438.358 106.299 439.15 107.373 439.715C108.447 440.28 109.465 440.619 110.482 440.676C110.652 440.676 111.16 440.732 111.613 440.732C111.895 440.732 112.121 440.732 112.178 440.732C112.404 440.676 112.517 440.506 112.574 440.167C112.63 439.715 112.63 439.093 112.404 438.245V438.189C111.104 433.497 110.708 431.349 110.708 431.349C110.652 431.123 110.821 430.954 111.047 430.897C111.273 430.841 111.443 431.01 111.5 431.236C111.5 431.236 111.839 433.384 113.139 438.019V438.076C113.365 438.98 113.421 439.715 113.308 440.28C113.195 440.902 112.856 441.297 112.347 441.41C112.234 441.467 111.895 441.467 111.613 441.467C111.16 441.467 110.595 441.41 110.426 441.41C109.352 441.297 108.221 440.958 107.091 440.337C105.96 439.771 104.773 438.923 103.586 437.85C101.947 436.097 100.647 434.571 99.9124 433.158C99.0646 431.745 98.8385 430.388 99.1776 429.202ZM109.126 443.558C109.013 443.558 108.956 443.445 108.956 443.276C108.956 443.106 109.013 442.937 109.126 442.937C110.708 442.767 112.347 442.767 113.987 442.824C114.1 442.824 114.156 442.993 114.156 443.163C114.156 443.332 114.1 443.445 113.987 443.445C112.291 443.332 110.708 443.389 109.126 443.558ZM111.047 444.576C110.991 444.576 110.991 444.463 110.991 444.293C110.991 444.124 110.991 443.954 111.047 443.954C111.613 443.784 112.234 443.784 112.856 443.841C112.913 443.841 112.913 444.01 112.913 444.18C112.913 444.35 112.856 444.463 112.856 444.463C112.234 444.406 111.613 444.406 111.047 444.576ZM91.547 506.186C91.3209 506.129 91.2079 505.96 91.2644 505.733C91.3209 505.507 91.4905 505.394 91.7166 505.451C99.4602 506.977 105.96 507.825 111.443 507.938C116.926 508.051 121.448 507.486 125.122 506.129C125.348 506.073 125.517 506.186 125.63 506.355C125.687 506.581 125.574 506.751 125.404 506.864C121.617 508.22 117.039 508.786 111.443 508.673C105.847 508.56 99.2906 507.712 91.547 506.186Z" fill="#4F8ECC"/>
<path fill-rule="evenodd" clip-rule="evenodd" d="M92.1134 504.094C91.8873 504.038 91.7743 503.868 91.8308 503.642C91.8873 503.416 92.0569 503.303 92.283 503.359C99.9701 504.886 106.414 505.677 111.896 505.62C117.323 505.564 121.731 504.773 125.292 503.133C125.462 503.02 125.688 503.133 125.801 503.303C125.914 503.473 125.801 503.699 125.631 503.812C121.957 505.507 117.436 506.355 111.896 506.355C106.357 506.412 99.8571 505.62 92.1134 504.094Z" fill="#4F8ECC"/>
<path fill-rule="evenodd" clip-rule="evenodd" d="M177.973 287.838C187.073 312.425 174.525 339.782 149.938 348.882C135.129 354.365 119.359 351.991 107.15 343.908C99.067 338.539 92.5104 330.682 88.8929 320.847C79.7927 296.26 92.3408 268.959 116.928 259.802C128.289 255.62 140.216 256.015 150.672 260.085C162.881 264.833 173.055 274.611 177.973 287.838Z" fill="#CD292E"/>
<path fill-rule="evenodd" clip-rule="evenodd" d="M103.193 332.49L103.08 375.617L128.176 338.199L103.193 332.49Z" fill="#CD292E"/>
<path fill-rule="evenodd" clip-rule="evenodd" d="M149.938 348.882C140.047 352.556 129.703 352.726 120.32 350.013L122.242 347.13C128.403 347.413 134.734 346.508 140.895 344.191C165.482 335.091 178.03 307.734 168.93 283.146C165.312 273.368 158.756 265.455 150.673 260.085C162.882 264.833 173.056 274.611 177.974 287.838C187.074 312.425 174.526 339.782 149.938 348.882Z" fill="url(#paint2_linear_923_951)"/>
<path fill-rule="evenodd" clip-rule="evenodd" d="M120.32 350.013C115.685 348.656 111.22 346.621 107.207 343.965C112.011 345.83 117.099 346.904 122.299 347.13L120.32 350.013Z" fill="url(#paint3_linear_923_951)"/>
<path fill-rule="evenodd" clip-rule="evenodd" d="M124.558 306.773L123.032 283.938C122.75 279.473 122.58 276.251 122.58 274.329C122.58 271.673 123.258 269.638 124.671 268.168C126.084 266.699 127.893 265.964 130.098 265.964C132.811 265.964 134.676 266.925 135.58 268.79C136.485 270.655 136.993 273.425 136.993 276.986C136.993 279.077 136.88 281.225 136.654 283.373L134.619 306.886C134.393 309.713 133.941 311.86 133.206 313.33C132.472 314.8 131.285 315.591 129.589 315.591C127.893 315.591 126.706 314.856 126.028 313.443C125.293 311.973 124.841 309.769 124.558 306.773ZM129.815 338.2C127.893 338.2 126.198 337.578 124.728 336.335C123.258 335.091 122.58 333.339 122.58 331.078C122.58 329.1 123.258 327.404 124.671 326.048C126.084 324.691 127.724 323.956 129.758 323.956C131.737 323.956 133.432 324.635 134.902 326.048C136.315 327.461 136.993 329.1 136.993 331.078C136.993 333.339 136.259 335.091 134.846 336.335C133.432 337.578 131.737 338.2 129.815 338.2Z" fill="white"/>
<path fill-rule="evenodd" clip-rule="evenodd" d="M635.524 639.07C635.241 639.07 634.902 638.957 634.676 638.787C634.111 638.335 634.054 637.487 634.507 636.922C640.894 629.235 644.398 619.513 644.398 609.452C644.398 604.648 643.607 599.956 642.081 595.434C641.855 594.756 642.194 593.965 642.928 593.739C643.607 593.513 644.398 593.852 644.624 594.53C646.263 599.278 647.111 604.308 647.111 609.396C647.111 620.022 643.381 630.365 636.598 638.505C636.259 638.9 635.863 639.07 635.524 639.07Z" fill="white"/>
<path fill-rule="evenodd" clip-rule="evenodd" d="M662.938 621.944C652.312 623.978 639.029 628.105 623.033 634.322C624.107 634.605 625.125 634.944 626.085 635.396C648.186 627.37 662.825 623.357 670.004 623.3C668.704 622.848 667.46 622.565 666.16 622.396C666.273 610.639 666.895 600.239 667.969 591.195C665.312 605.269 663.617 615.5 662.938 621.944Z" fill="#4F8ECC"/>
<path fill-rule="evenodd" clip-rule="evenodd" d="M623.033 634.379C618.116 632.909 613.764 633.248 609.977 635.34L613.142 646.418C613.481 647.662 612.803 648.679 611.559 648.623L614.498 648.736C615.855 648.001 617.212 647.492 618.625 647.323C621.338 649.018 624.842 648.679 629.251 646.192C629.59 641.783 628.459 638.222 625.916 635.453C625.972 635.453 626.029 635.396 626.086 635.396C625.125 635.001 624.107 634.661 623.033 634.379Z" fill="#FFB27D"/>
<path fill-rule="evenodd" clip-rule="evenodd" d="M659.603 654.162C660.281 650.205 660.96 645.909 661.581 641.331C653.273 643.535 642.42 645.57 629.081 647.549C629.137 647.096 629.194 646.644 629.194 646.249C624.785 648.679 621.281 649.075 618.568 647.379C617.154 647.549 615.798 648.057 614.441 648.792L644.342 650.036C644.003 652.07 643.098 653.597 641.742 654.557C648.072 654.727 654.007 654.614 659.603 654.162Z" fill="#4F8ECC"/>
<path fill-rule="evenodd" clip-rule="evenodd" d="M609.976 635.339C612.802 633.757 615.968 633.191 619.472 633.587C625.181 621.265 621.676 603.686 629.703 576.895C623.881 579.834 617.155 593.908 609.411 619.174C608.563 619.908 607.433 620.7 606.02 621.604L609.976 635.339Z" fill="#61A0E0"/>
<path fill-rule="evenodd" clip-rule="evenodd" d="M629.703 576.896C621.677 603.688 625.181 621.21 619.473 633.588C620.66 633.758 621.847 633.984 623.09 634.379C639.086 628.105 652.369 623.979 662.995 622.001C663.674 615.557 665.369 605.27 668.082 591.253C666.952 600.296 666.387 610.696 666.274 622.453C667.574 622.623 668.817 622.905 670.117 623.357C662.939 623.414 648.299 627.427 626.199 635.453L626.029 635.51C628.573 638.28 629.703 641.84 629.364 646.249C629.308 646.701 629.308 647.097 629.251 647.549C642.59 645.571 653.443 643.536 661.752 641.332C668.591 639.523 673.735 637.658 677.239 635.736C686.226 620.757 687.639 601.37 681.478 577.631C678.143 573.335 670.626 571.752 659.039 572.826C646.943 583.057 641.347 583.565 642.421 574.296C636.938 574.409 632.756 575.313 629.703 576.896Z" fill="#61A0E0"/>
<path fill-rule="evenodd" clip-rule="evenodd" d="M629.307 577.121C622.128 592.043 620.885 622.282 617.55 625.561C616.306 627.087 613.367 628.896 608.732 631.1L608.845 631.383L609.976 635.339C612.802 633.757 615.967 633.191 619.472 633.587C625.181 621.265 621.676 603.686 629.702 576.895C629.533 576.951 629.42 577.064 629.307 577.121Z" fill="#4F8ECC"/>
<path fill-rule="evenodd" clip-rule="evenodd" d="M565.606 652.523L637.729 655.519C641.459 655.688 643.777 653.597 644.399 649.979L563.175 646.588H562.949C562.158 646.532 561.027 646.927 561.367 649.075C561.706 650.884 563.627 652.41 565.606 652.523Z" fill="url(#paint4_linear_923_951)"/>
<path fill-rule="evenodd" clip-rule="evenodd" d="M553.792 607.813L600.423 609.735C601.666 609.791 602.966 610.865 603.306 612.109L613.197 646.361C613.536 647.605 612.858 648.622 611.615 648.566L564.983 646.644C563.74 646.587 562.44 645.514 562.101 644.27L552.209 610.017C551.813 608.774 552.548 607.756 553.792 607.813Z" fill="#FBBFA8"/>
<path fill-rule="evenodd" clip-rule="evenodd" d="M557.918 621.774L563.966 642.857C564.248 643.875 565.379 644.836 566.453 644.892L608.958 646.644C610.032 646.701 610.541 645.853 610.258 644.836L606.188 630.762C602.684 631.214 599.01 631.44 595.28 631.44C592.453 631.44 589.684 631.327 587.027 631.044C586.519 632.457 585.162 633.475 583.41 633.475C581.205 633.475 579.057 631.892 578.323 629.801C570.296 628.161 563.231 625.335 557.918 621.774Z" fill="url(#paint5_linear_923_951)"/>
<path fill-rule="evenodd" clip-rule="evenodd" d="M543.956 658.514C547.517 656.197 550.287 654.049 552.209 652.071C555.205 653.427 558.087 654.671 560.857 655.745C567.47 654.897 575.214 654.049 584.088 653.258L565.548 652.466C563.57 652.41 561.705 650.827 561.366 649.075C561.026 646.871 562.157 646.532 562.948 646.588H563.174L564.927 646.645C563.683 646.588 562.383 645.514 562.044 644.271L557.183 627.314C554.187 627.144 551.587 627.088 549.27 627.144C536.213 631.892 524.908 651.336 500.604 667.502C500.999 671.741 503.09 674.454 506.369 677.167C519.143 671.684 531.974 665.636 539.491 661.227C541.074 660.323 542.6 659.362 543.956 658.514Z" fill="#4567C6"/>
<path fill-rule="evenodd" clip-rule="evenodd" d="M474.604 669.366C484.269 677.901 491.447 683.045 495.687 685.023C500.265 687.115 501.565 685.532 502.695 680.219C489.921 676.149 496.874 673.38 492.126 670.158C486.982 669.819 481.16 667.445 474.66 662.979C470.477 662.527 470.025 665.014 474.604 669.366Z" fill="#3B5BB3"/>
<path fill-rule="evenodd" clip-rule="evenodd" d="M477.148 658.232C477.543 661.227 477.826 662.64 478.222 665.241L478.391 665.354L478.504 665.41L478.617 665.467L478.787 665.58L478.956 665.693L479.069 665.749L479.182 665.806L479.352 665.919L479.521 666.032L479.578 666.088L480.087 666.371L480.143 666.428L480.256 666.484L480.426 666.541H480.482L480.652 666.654L480.709 666.71L480.822 666.767L480.991 666.823H481.048L481.217 666.936H481.274L481.443 666.993L481.556 667.049H481.613L481.782 667.162H481.839L482.009 667.219L482.122 667.275L482.178 667.332L482.348 667.445L482.517 667.501L482.63 667.558L482.913 667.671L483.195 667.784L483.252 667.841L483.422 667.897L483.591 667.954L483.704 668.01L483.817 668.067L483.987 668.123L484.156 668.18L484.213 668.236L484.326 668.293L484.496 668.349L484.665 668.406L484.722 668.462L484.835 668.519L485.004 668.575L485.174 668.632H485.23L485.343 668.688L485.513 668.745H485.569L485.739 668.801H485.796L485.909 668.858L486.078 668.915L486.248 668.971H486.304L486.417 669.028L486.53 669.084H486.587L486.756 669.141H486.813L486.926 669.197L487.039 669.254H487.096L487.265 669.31H487.322L487.491 669.367L487.604 669.423H487.661L487.83 669.48L488.17 669.536L488.339 669.593L488.509 669.649H488.622H488.678L488.848 669.706L489.017 669.762L489.187 669.819L489.356 669.875L489.526 669.932H489.583H489.696C489.639 669.593 489.583 669.254 489.47 668.915C485.796 665.354 482.517 661.51 480.482 653.823C477.939 650.771 476.469 652.014 477.148 658.232ZM479.465 673.549C480.2 677.676 481.104 681.463 482.009 683.441C483.93 687.624 487.435 685.476 491.335 682.537C488.226 680.502 484.213 677.506 479.465 673.549Z" fill="#3B5BB3"/>
<path fill-rule="evenodd" clip-rule="evenodd" d="M485.061 668.576L485.174 668.632L485.344 668.689H485.4L485.513 668.745L485.683 668.802H485.739L485.909 668.858H485.965L486.078 668.915L486.248 668.971L486.418 669.028H486.474L486.587 669.084L486.7 669.141H486.757L486.926 669.197H486.983L487.096 669.254L487.209 669.31H487.265L487.435 669.367H487.492L487.661 669.424L487.774 669.48H487.831L488 669.537L488.339 669.593L488.509 669.65L488.678 669.706H488.791H488.848L489.018 669.763L489.187 669.819L489.357 669.876L489.526 669.932L489.696 669.989H489.752H489.865C489.809 669.65 489.752 669.311 489.639 668.971C485.965 665.41 482.687 661.51 480.652 653.88C479.917 653.088 479.296 652.58 478.73 652.41C479.296 658.571 481.387 663.997 485.061 668.576Z" fill="#284191"/>
<path fill-rule="evenodd" clip-rule="evenodd" d="M501.395 679.767C502.526 678.184 503.826 677.054 505.182 676.263C502.978 674.228 501.395 672.08 500.774 669.197C498.23 670.554 495.8 671.289 493.426 671.515C495.178 674.058 492.013 676.489 501.395 679.767Z" fill="#FFB27D"/>
<path fill-rule="evenodd" clip-rule="evenodd" d="M636.484 681.463C652.028 680.502 658.415 668.858 658.076 654.275C652.932 654.671 647.506 654.727 641.797 654.445C640.723 655.179 639.367 655.519 637.728 655.462L584.088 653.201C575.213 653.992 567.47 654.84 560.857 655.688C556.787 656.197 553.113 656.762 549.891 657.327C547.574 657.949 544.182 659.193 539.604 661.171L539.434 661.284C531.917 665.693 519.086 671.741 506.312 677.223C505.916 676.884 505.577 676.602 505.238 676.263C503.825 677.054 502.582 678.241 501.451 679.767C501.847 679.88 502.242 680.049 502.695 680.163C502.695 680.276 502.638 680.332 502.638 680.445C538.982 683.723 550.965 678.241 560.574 675.302C592.114 680.954 607.262 682.989 636.484 681.463Z" fill="#4567C6"/>
<path fill-rule="evenodd" clip-rule="evenodd" d="M654.403 554.568C653.216 549.651 652.99 544.055 651.351 541.907C638.237 537.272 636.768 544.564 631.002 545.92C630.833 550.725 633.263 564.46 638.237 566.664C639.311 567.795 641.007 568.417 643.437 568.643C643.211 569.66 642.477 573.334 642.194 574.295C641.177 583.565 646.716 583.056 658.812 572.825H658.868C658.812 569.547 658.529 567.06 658.586 564.63C658.642 562.934 658.699 561.464 658.812 560.164C663.164 555.642 664.012 551.968 661.412 549.199C657.964 547.56 655.986 549.877 655.42 556.151C654.346 555.699 655.081 556.038 654.403 554.568Z" fill="#FFB27D"/>
<path fill-rule="evenodd" clip-rule="evenodd" d="M631.002 545.921C636.768 544.564 638.237 537.273 651.351 541.908C652.99 544.055 653.216 549.651 654.403 554.569C655.081 556.038 654.403 555.699 655.42 556.095C655.986 549.877 657.964 547.56 661.412 549.143C664.012 551.969 663.164 555.586 658.812 560.164C658.699 561.464 658.642 562.934 658.586 564.63C670.795 553.382 668.308 538.121 660.903 533.09C662.712 533.26 664.577 533.994 666.442 535.181C663.729 531.564 660.112 530.264 655.533 531.394C656.042 528.851 655.929 526.929 655.251 525.686C655.025 527.438 654.686 528.738 654.233 529.699C651.294 526.986 645.642 526.364 639.877 528.568C632.416 531.394 631.398 531.225 628.402 529.19C620.376 534.56 626.085 547.56 631.002 545.921Z" fill="#284191"/>
<path fill-rule="evenodd" clip-rule="evenodd" d="M651.182 566.438C649.034 567.852 646.434 568.586 643.438 568.643C643.325 569.208 643.042 570.565 642.76 571.865C646.49 570.847 649.316 569.039 651.182 566.438Z" fill="#F08261"/>
<path fill-rule="evenodd" clip-rule="evenodd" d="M561.535 647.379C557.465 645.966 553.904 644.214 550.965 642.179C549.609 643.535 548.196 644.835 546.839 646.079C533.5 658.514 520.556 668.066 508.177 673.945C506.934 674.51 505.747 675.075 504.503 675.584C504.73 675.81 504.956 676.036 505.238 676.262L506.312 677.223C508.856 676.149 511.343 675.018 513.83 673.945C523.947 669.423 533.387 664.844 539.434 661.283C539.491 661.227 539.548 661.227 539.604 661.17C541.187 660.266 542.6 659.362 543.956 658.514C544.974 657.836 545.935 657.214 546.839 656.592C549.043 655.009 550.852 653.483 552.265 652.07C555.261 653.427 558.144 654.67 560.913 655.744C564.644 655.235 568.713 654.783 573.179 654.331C576.627 653.992 580.301 653.596 584.144 653.257L573.179 652.805L565.661 652.466C563.683 652.409 561.818 650.827 561.478 649.074C561.252 648.283 561.309 647.718 561.535 647.379ZM634.223 673.888C625.18 676.432 612.519 676.771 596.41 674.849C593.64 674.51 590.983 674.227 588.383 673.888C582.844 673.21 577.757 672.531 573.122 671.797C568.487 671.118 564.305 670.384 560.518 669.649C557.748 671.288 554.583 672.701 551.022 673.888C549.665 674.34 548.309 674.736 546.839 675.132C535.478 678.127 520.612 679.371 502.186 678.806C501.903 679.088 501.677 679.427 501.451 679.766C501.847 679.879 502.242 680.049 502.695 680.162L502.638 680.445C524.739 682.423 537.852 681.179 546.839 679.258C552.661 678.014 556.787 676.488 560.574 675.301C565.096 676.092 569.222 676.827 573.179 677.505C596.749 681.462 611.501 682.819 636.484 681.462C643.437 681.01 648.58 678.466 652.085 674.453C656.38 669.479 658.245 662.357 658.076 654.331C657.398 654.388 656.663 654.444 655.985 654.444C654.572 654.501 653.102 654.557 651.632 654.614C651.124 664.336 645.302 670.779 634.223 673.888Z" fill="#3B5BB3"/>
<path fill-rule="evenodd" clip-rule="evenodd" d="M582.224 625.787C583.976 625.787 585.615 627.2 585.898 628.952C586.18 630.705 584.993 632.118 583.241 632.118C581.489 632.118 579.85 630.705 579.567 628.952C579.284 627.2 580.471 625.787 582.224 625.787Z" fill="#F57A44"/>
<path fill-rule="evenodd" clip-rule="evenodd" d="M630.156 536.82C626.765 539.364 625.86 541.851 627.443 544.394C633.265 546.373 638.521 545.921 643.269 543.151C640.16 543.264 635.808 541.173 630.156 536.82Z" fill="#284191"/>
<path fill-rule="evenodd" clip-rule="evenodd" d="M639.934 537.895C638.012 539.082 637.447 540.325 638.125 541.738C641.064 543.038 643.89 543.095 646.49 541.908C644.908 541.795 642.703 540.495 639.934 537.895Z" fill="#284191"/>
<path fill-rule="evenodd" clip-rule="evenodd" d="M596.807 607.078L603.137 607.36C607.829 607.586 608.168 600.295 603.476 600.069L597.202 599.786C597.881 600.521 598.276 601.482 598.389 602.443C598.502 603.121 598.502 603.856 598.276 604.478C598.05 605.495 597.541 606.399 596.807 607.078Z" fill="#4F8ECC"/>
<path fill-rule="evenodd" clip-rule="evenodd" d="M554.471 605.043C566.963 605.664 580.98 606.343 593.528 606.908C598.22 607.134 598.559 599.843 593.868 599.616C581.376 598.995 567.358 598.316 554.81 597.751C550.119 597.525 549.723 604.817 554.471 605.043Z" fill="#4F8ECC"/>
<path fill-rule="evenodd" clip-rule="evenodd" d="M603.308 600.747C604.947 600.803 606.191 602.217 606.134 603.856C606.077 605.495 604.664 606.738 603.025 606.682C601.386 606.625 600.143 605.212 600.199 603.573C600.256 601.934 601.669 600.69 603.308 600.747Z" fill="white"/>
<path d="M565.934 600.4L565.787 603.448L569.457 603.625L569.603 600.576L565.934 600.4Z" fill="#D2E5F7"/>
<path d="M557.398 600.032L557.252 603.081L560.922 603.257L561.068 600.209L557.398 600.032Z" fill="#BBDBFA"/>
<path d="M574.465 600.823L574.318 603.871L577.988 604.047L578.134 600.999L574.465 600.823Z" fill="#EFF9FC"/>
<path d="M561.639 600.214L561.492 603.263L565.162 603.439L565.308 600.39L561.639 600.214Z" fill="#C3DFFA"/>
<path d="M570.168 600.637L570.021 603.686L573.691 603.862L573.837 600.813L570.168 600.637Z" fill="#DFEDFA"/>
<path fill-rule="evenodd" clip-rule="evenodd" d="M556.788 599.955L554.696 599.842C553.453 599.785 553.227 600.859 553.227 601.312C553.227 601.764 553.283 602.838 554.527 602.894L556.618 603.007L556.788 599.955Z" fill="#A4D0FC"/>
<path d="M578.823 601.005L578.678 604.054L582.348 604.229L582.493 601.18L578.823 601.005Z" fill="white"/>
<path fill-rule="evenodd" clip-rule="evenodd" d="M593.698 601.764L591.55 601.651L591.381 604.704L593.472 604.817C594.716 604.873 594.942 603.799 594.942 603.347C595.055 602.838 594.998 601.821 593.698 601.764Z" fill="#FEFEFE"/>
<path d="M583.072 601.177L582.926 604.226L586.596 604.401L586.742 601.353L583.072 601.177Z" fill="#FEFEFE"/>
<path d="M587.291 601.426L587.145 604.475L590.814 604.651L590.961 601.602L587.291 601.426Z" fill="#FEFEFE"/>
<path fill-rule="evenodd" clip-rule="evenodd" d="M603.137 602.668C603.42 602.895 603.477 603.234 603.42 603.573C603.364 603.686 603.307 603.799 603.25 603.912C603.137 604.025 603.024 604.081 602.911 604.138C602.629 604.251 602.233 604.195 602.007 603.968C601.611 603.629 601.611 603.064 601.95 602.725C602.233 602.386 602.798 602.329 603.137 602.668ZM601.611 602.499C601.159 603.008 601.216 603.799 601.724 604.251C602.12 604.59 602.742 604.647 603.194 604.421L604.268 605.325C604.324 605.382 604.437 605.438 604.551 605.438C604.664 605.438 604.72 605.382 604.833 605.325C605.003 605.155 604.946 604.929 604.777 604.76L603.703 603.855C603.929 603.347 603.816 602.781 603.364 602.442C602.855 601.934 602.063 601.99 601.611 602.499Z" fill="#4F8ECC"/>
<path d="M265.366 260.487L254.715 301.916L248.97 300.439L235.723 264.641L235.338 264.543L227.527 294.927L221.277 293.32L231.927 251.891L237.712 253.378L250.97 289.221L251.354 289.32L259.175 258.895L265.366 260.487Z" fill="white"/>
<path d="M305.147 292.797C304.009 297.22 302.223 300.815 299.786 303.582C297.353 306.335 294.507 308.206 291.248 309.194C288.006 310.172 284.598 310.202 281.025 309.283C277.437 308.361 274.453 306.688 272.071 304.264C269.706 301.83 268.124 298.814 267.323 295.215C266.523 291.616 266.69 287.612 267.824 283.202C268.961 278.779 270.746 275.19 273.179 272.437C275.615 269.67 278.455 267.798 281.697 266.82C284.955 265.832 288.379 265.799 291.966 266.721C295.54 267.64 298.509 269.316 300.874 271.75C303.256 274.173 304.847 277.185 305.647 280.784C306.45 284.369 306.284 288.373 305.147 292.797ZM298.956 291.205C299.823 287.834 300.007 284.855 299.507 282.268C299.025 279.671 297.992 277.536 296.409 275.864C294.843 274.182 292.873 273.036 290.499 272.425C288.112 271.812 285.827 271.864 283.644 272.583C281.465 273.287 279.53 274.659 277.842 276.698C276.17 278.727 274.901 281.427 274.034 284.799C273.167 288.17 272.975 291.154 273.458 293.751C273.957 296.338 274.99 298.473 276.556 300.155C278.126 301.824 280.104 302.965 282.491 303.578C284.865 304.189 287.141 304.141 289.321 303.436C291.517 302.721 293.452 301.35 295.123 299.321C296.812 297.282 298.09 294.577 298.956 291.205Z" fill="white"/>
<path d="M313.058 278.483L314.442 273.102L346.505 281.345L345.122 286.726L332.195 283.403L322.928 319.451L316.698 317.85L325.965 281.801L313.058 278.483Z" fill="white"/>
<path d="M358.016 328.471L368.666 287.042L394.357 293.646L392.974 299.027L373.534 294.03L370.289 306.653L387.888 311.177L386.51 316.538L368.911 312.013L364.267 330.078L358.016 328.471Z" fill="white"/>
<path d="M432.707 325.588C431.57 330.011 429.783 333.607 427.346 336.373C424.913 339.127 422.067 340.997 418.809 341.985C415.567 342.964 412.159 342.993 408.585 342.075C404.998 341.152 402.013 339.479 399.631 337.056C397.266 334.622 395.684 331.605 394.884 328.007C394.084 324.408 394.25 320.404 395.384 315.994C396.521 311.57 398.306 307.982 400.739 305.229C403.176 302.462 406.015 300.589 409.257 299.611C412.516 298.623 415.939 298.59 419.526 299.512C423.1 300.431 426.069 302.107 428.434 304.541C430.816 306.965 432.407 309.976 433.207 313.575C434.011 317.16 433.844 321.165 432.707 325.588ZM426.517 323.997C427.384 320.625 427.567 317.646 427.068 315.059C426.585 312.462 425.552 310.328 423.969 308.655C422.403 306.973 420.433 305.827 418.06 305.217C415.673 304.603 413.388 304.656 411.205 305.374C409.025 306.079 407.091 307.451 405.402 309.49C403.73 311.518 402.461 314.219 401.594 317.59C400.728 320.962 400.536 323.946 401.018 326.543C401.518 329.13 402.551 331.264 404.117 332.946C405.686 334.615 407.664 335.756 410.051 336.37C412.425 336.98 414.702 336.933 416.881 336.228C419.078 335.513 421.012 334.141 422.684 332.112C424.372 330.073 425.65 327.368 426.517 323.997Z" fill="white"/>
<path d="M472.467 313.725L478.738 315.338L471.733 342.586C470.988 345.486 469.647 347.88 467.709 349.768C465.775 351.643 463.409 352.904 460.612 353.551C457.818 354.184 454.762 354.075 451.445 353.222C448.141 352.372 445.418 350.997 443.275 349.094C441.137 347.179 439.672 344.933 438.882 342.358C438.096 339.769 438.075 337.025 438.821 334.125L445.825 306.877L452.076 308.484L445.201 335.227C444.719 337.101 444.703 338.872 445.151 340.54C445.613 342.212 446.498 343.662 447.807 344.889C449.119 346.104 450.821 346.98 452.911 347.517C455.015 348.058 456.935 348.113 458.67 347.682C460.422 347.241 461.89 346.396 463.074 345.148C464.271 343.903 465.111 342.343 465.592 340.468L472.467 313.725Z" fill="white"/>
<path d="M521.265 326.27L510.615 367.699L504.87 366.222L491.622 330.425L491.238 330.326L483.427 360.71L477.176 359.103L487.826 317.674L493.612 319.161L506.869 355.004L507.254 355.103L515.075 324.678L521.265 326.27Z" fill="white"/>
<path d="M533.145 373.491L519.733 370.043L530.383 328.614L544.22 332.171C548.279 333.214 551.552 334.94 554.039 337.347C556.529 339.742 558.153 342.682 558.91 346.169C559.684 349.646 559.518 353.536 558.412 357.838C557.302 362.153 555.56 365.659 553.185 368.355C550.823 371.055 547.944 372.86 544.547 373.769C541.153 374.665 537.353 374.573 533.145 373.491ZM527.388 366.188L534.205 367.941C537.361 368.752 540.137 368.833 542.532 368.183C544.931 367.52 546.941 366.19 548.562 364.191C550.186 362.179 551.42 359.534 552.262 356.257C553.097 353.007 553.287 350.115 552.831 347.583C552.389 345.054 551.3 342.941 549.565 341.244C547.83 339.547 545.453 338.31 542.432 337.534L535.23 335.682L527.388 366.188Z" fill="white"/>
</g>
<defs>
<linearGradient id="paint0_linear_923_951" x1="170.031" y1="157.19" x2="468.45" y2="659.526" gradientUnits="userSpaceOnUse">
<stop stop-color="#CD292E"/>
<stop offset="1" stop-color="#951D21"/>
</linearGradient>
<linearGradient id="paint1_linear_923_951" x1="653.441" y1="616.913" x2="687.732" y2="734.298" gradientUnits="userSpaceOnUse">
<stop stop-color="#CD292E"/>
<stop offset="1" stop-color="#951D21"/>
</linearGradient>
<linearGradient id="paint2_linear_923_951" x1="120.32" y1="260.085" x2="204.735" y2="315.837" gradientUnits="userSpaceOnUse">
<stop stop-color="#CD292E"/>
<stop offset="1" stop-color="#951D21"/>
</linearGradient>
<linearGradient id="paint3_linear_923_951" x1="107.207" y1="343.965" x2="111.384" y2="354.387" gradientUnits="userSpaceOnUse">
<stop stop-color="#CD292E"/>
<stop offset="1" stop-color="#951D21"/>
</linearGradient>
<linearGradient id="paint4_linear_923_951" x1="561.305" y1="646.583" x2="563.209" y2="664.268" gradientUnits="userSpaceOnUse">
<stop stop-color="#CD292E"/>
<stop offset="1" stop-color="#951D21"/>
</linearGradient>
<linearGradient id="paint5_linear_923_951" x1="557.918" y1="621.774" x2="577.185" y2="662.377" gradientUnits="userSpaceOnUse">
<stop stop-color="#CD292E"/>
<stop offset="1" stop-color="#951D21"/>
</linearGradient>
</defs>
</svg>
