<svg width="26" height="30" viewBox="0 0 26 30" fill="none" xmlns="http://www.w3.org/2000/svg">
<path d="M21.8285 2.29243C20.4562 0.727376 17.9746 0.0566406 14.8001 0.0566406H5.58648C4.93799 0.0566406 4.38461 0.528503 4.28332 1.16959L0.449163 25.5001C0.431295 25.6131 0.438144 25.7286 0.469236 25.8386C0.500328 25.9486 0.554924 26.0506 0.629257 26.1375C0.703589 26.2244 0.795889 26.2942 0.899788 26.3419C1.00369 26.3897 1.11671 26.4144 1.23106 26.4142H6.9193L8.34722 17.3537L8.30276 17.6378C8.40281 16.998 8.95372 16.5261 9.60098 16.5249H12.3037C17.6139 16.5249 21.7705 14.3681 22.9847 8.12894C23.0205 7.94489 23.0514 7.76454 23.0786 7.58914C23.4393 5.28294 23.0761 3.71419 21.8285 2.29243Z" fill="white"/>
<path d="M21.8285 2.29243C20.4562 0.727376 17.9746 0.0566406 14.8001 0.0566406H5.58648C4.93799 0.0566406 4.38461 0.528503 4.28332 1.16959L0.449163 25.5001C0.431295 25.6131 0.438144 25.7286 0.469236 25.8386C0.500328 25.9486 0.554924 26.0506 0.629257 26.1375C0.703589 26.2244 0.795889 26.2942 0.899788 26.3419C1.00369 26.3897 1.11671 26.4144 1.23106 26.4142H6.9193L8.34722 17.3537L8.30276 17.6378C8.40281 16.998 8.95372 16.5261 9.60098 16.5249H12.3037C17.6139 16.5249 21.7705 14.3681 22.9847 8.12894C23.0205 7.94489 23.0514 7.76454 23.0786 7.58914C23.4393 5.28294 23.0761 3.71419 21.8285 2.29243Z" fill="white"/>
<path d="M9.88138 7.62002C9.92431 7.34878 10.0626 7.10174 10.2713 6.92332C10.4801 6.7449 10.7456 6.6468 11.0203 6.64665H18.2427C19.0974 6.64665 19.8954 6.70223 20.6254 6.81835C21.0241 6.88225 21.4184 6.97053 21.8063 7.08269C22.2473 7.20621 22.6734 7.37668 23.0786 7.58914C23.4405 5.28294 23.0773 3.71419 21.8298 2.29119C20.4562 0.727376 17.9758 0.0566406 14.8013 0.0566406H5.58772C4.93922 0.0566406 4.38708 0.528503 4.28579 1.16959L0.449163 25.4989C0.431312 25.6117 0.438131 25.7271 0.469152 25.8371C0.500174 25.947 0.554659 26.0489 0.628856 26.1358C0.703053 26.2227 0.795198 26.2925 0.898946 26.3403C1.00269 26.3882 1.11558 26.4129 1.22983 26.413H6.91806L8.34599 17.3512L9.88138 7.62002Z" fill="white"/>
<path d="M23.0779 7.58887C23.0494 7.76921 23.0186 7.94956 22.984 8.12867C21.7697 14.3666 17.612 16.5246 12.3029 16.5246H9.59779C8.95053 16.5246 8.39962 16.9977 8.3008 17.6375L6.91611 26.4139L6.52207 28.9029C6.50653 29.0017 6.5126 29.1027 6.53986 29.199C6.56712 29.2952 6.61492 29.3843 6.67997 29.4603C6.74502 29.5363 6.82577 29.5972 6.91665 29.639C7.00753 29.6807 7.10638 29.7023 7.20639 29.7021H12.0016C12.5685 29.7021 13.0515 29.2883 13.1404 28.7288L13.1874 28.4842L14.0916 22.7576L14.1484 22.4414C14.1913 22.1699 14.3298 21.9228 14.5388 21.7443C14.7478 21.5659 15.0137 21.4679 15.2885 21.468H16.0062C20.6506 21.468 24.2871 19.5818 25.3507 14.1233C25.7929 11.843 25.5644 9.93829 24.3909 8.60176C24.0185 8.18703 23.5735 7.84377 23.0779 7.58887Z" fill="#EBEBEB"/>
<path d="M21.8048 7.0829C21.6155 7.02737 21.4244 6.97834 21.2317 6.93591C21.0299 6.89173 20.8268 6.85342 20.6227 6.82103C19.8344 6.69942 19.0376 6.64118 18.24 6.64686H11.0176C10.7426 6.6463 10.4765 6.74431 10.2675 6.92312C10.0586 7.10192 9.92063 7.34968 9.87869 7.62147L8.3433 17.3552L8.29883 17.638C8.39765 16.9982 8.94856 16.5263 9.59582 16.5251H12.2997C17.61 16.5251 21.7665 14.3684 22.9808 8.12915C23.0166 7.9451 23.0475 7.76599 23.0746 7.58935C22.7535 7.42136 22.42 7.28054 22.0753 7.16813C21.986 7.13716 21.8958 7.10874 21.8048 7.0829Z" fill="#D7D7D7"/>
</svg>
