<svg width="45" height="45" viewBox="0 0 66 66" fill="none" xmlns="http://www.w3.org/2000/svg">
<circle cx="33" cy="33" r="33" fill="url(#paint0_linear_899_1113)"/>
<path d="M18.8516 39.2884V39.2884C18.8516 40.018 18.8516 40.3829 18.8818 40.6902C19.1758 43.6745 21.5369 46.0356 24.5212 46.3295C24.8285 46.3598 25.1933 46.3598 25.923 46.3598H40.0659C40.7955 46.3598 41.1604 46.3598 41.4677 46.3295C44.452 46.0356 46.8131 43.6745 47.107 40.6902C47.1373 40.3829 47.1373 40.018 47.1373 39.2884V39.2884M18.8516 39.2884V30.9598C18.8516 26.2458 18.8516 23.8889 20.052 22.2366C20.4397 21.7029 20.909 21.2337 21.4426 20.846C23.0949 19.6455 25.4519 19.6455 30.1659 19.6455H39.2801C40.7405 19.6455 41.4707 19.6455 42.0778 19.7663C44.5713 20.2623 46.5205 22.2115 47.0165 24.7049C47.1373 25.3121 47.1373 26.0423 47.1373 27.5027V27.5027V28.2884M18.8516 39.2884L22.4459 34.2563C23.9822 32.1054 24.7504 31.03 25.7299 30.709C26.3658 30.5006 27.0516 30.5006 27.6875 30.709C28.667 31.03 29.4352 32.1054 30.9715 34.2563L31.7686 35.3723C32.3538 36.1915 32.6464 36.6011 32.96 36.8613C33.9754 37.7038 35.4088 37.8224 36.5488 37.1584C36.901 36.9532 37.257 36.5973 37.9688 35.8854V35.8854C38.5828 35.2714 38.8898 34.9645 39.2035 34.7713C40.2141 34.1489 41.4891 34.1489 42.4997 34.7713C42.8134 34.9645 43.1204 35.2714 43.7343 35.8854L47.1373 39.2884M47.1373 39.2884V34.5741M42.423 27.1098C42.423 28.6286 41.1918 29.8598 39.673 29.8598C38.1542 29.8598 36.923 28.6286 36.923 27.1098C36.923 25.591 38.1542 24.3598 39.673 24.3598C41.1918 24.3598 42.423 25.591 42.423 27.1098Z" stroke="white" stroke-width="2.35714" stroke-linecap="round" stroke-linejoin="round"/>
<defs>
<linearGradient id="paint0_linear_899_1113" x1="0" y1="0" x2="66" y2="66" gradientUnits="userSpaceOnUse">
<stop stop-color="#CD292E"/>
<stop offset="1" stop-color="#951D21"/>
</linearGradient>
</defs>
</svg>
