<svg width="22" height="22" viewBox="0 0 22 22" fill="none" xmlns="http://www.w3.org/2000/svg">
<path d="M7.89353 8.94901L7.4774 8.22825M9.76613 12.1924L9.35 11.4717M11.6387 15.4359L11.2226 14.7151M15.7702 15.9336L9.42746 19.5956C8.62013 20.0617 8.21646 20.2948 7.81739 20.3157C7.46637 20.3341 7.11851 20.2409 6.82372 20.0494C6.48858 19.8318 6.2555 19.4281 5.78939 18.6208L5.24842 17.6838C6.64166 16.8794 7.11901 15.0979 6.31463 13.7047C5.51024 12.3114 3.72872 11.8341 2.33549 12.6385L1.79452 11.7015C1.32841 10.8941 1.09535 10.4905 1.07444 10.0914C1.05603 9.74036 1.14924 9.39252 1.34069 9.09771C1.55834 8.76256 1.96201 8.5295 2.76933 8.06339L12.5717 2.40399C13.379 1.93788 13.7827 1.7048 14.1818 1.6839C14.5328 1.6655 14.8807 1.75869 15.1755 1.95017C15.5106 2.16781 15.7437 2.57148 16.2098 3.3788L16.7508 4.3158C15.3575 5.12018 14.8802 6.9017 15.6846 8.29493C16.4889 9.68817 18.2705 10.1655 19.6637 9.36114L20.2047 10.2981C20.6708 11.1055 20.9038 11.5092 20.9247 11.9082C20.9432 12.2592 20.8499 12.6071 20.6585 12.9019C20.4409 13.237 20.0372 13.4701 19.2298 13.9362L18.6532 14.2691" stroke="white" stroke-width="1.55" stroke-linecap="round" stroke-linejoin="round"/>
</svg>
