<svg width="18" height="18" viewBox="0 0 22 22" fill="none" xmlns="http://www.w3.org/2000/svg">
<g clip-path="url(#clip0_850_4603)">
<path d="M7.42256 6.92301L8.43915 7.19945C8.6263 7.25034 8.73694 7.44398 8.68627 7.63196C8.63561 7.81994 8.44282 7.93108 8.25567 7.88019L7.23909 7.60375L4.85389 16.4533L6.58519 16.9241C7.20267 15.8315 8.49794 15.2524 9.76111 15.5959C11.0243 15.9393 11.8518 17.0958 11.8362 18.352L13.6643 18.8491L16.0495 9.99955L15.0329 9.72311C14.8458 9.67222 14.7351 9.47858 14.7858 9.2906C14.8364 9.10262 15.0292 8.99149 15.2164 9.04238L16.233 9.31882L17.1503 5.91513L15.3222 5.41801C14.7047 6.5106 13.4095 7.08977 12.1463 6.74628C10.8831 6.40278 10.0557 5.24638 10.0713 3.99012L8.33995 3.51933L7.42256 6.92301ZM14.9134 4.57621L17.3338 5.2344C17.7081 5.33618 17.9294 5.72347 17.8281 6.09943L14.342 19.0334C14.2407 19.4094 13.8551 19.6317 13.4808 19.5299L11.0604 18.8717C11.3644 17.7438 10.7005 16.5819 9.57763 16.2766C8.45474 15.9712 7.29803 16.638 6.99403 17.7659L4.67041 17.1341C4.29612 17.0323 4.07483 16.645 4.17617 16.269L7.66223 3.33503C7.76356 2.95907 8.14913 2.73681 8.52343 2.83859L10.847 3.47045C10.5431 4.59833 11.2069 5.76019 12.3298 6.06554C13.4527 6.37089 14.6094 5.70409 14.9134 4.57621ZM9.61112 8.24877C9.42397 8.19788 9.31333 8.00424 9.364 7.81626C9.41466 7.62828 9.60745 7.51714 9.7946 7.56804L11.15 7.93662C11.3372 7.98751 11.4478 8.18116 11.3972 8.36914C11.3465 8.55712 11.1537 8.66825 10.9666 8.61736L9.61112 8.24877ZM12.322 8.98594C12.1349 8.93505 12.0242 8.74141 12.0749 8.55343C12.1256 8.36545 12.3183 8.25432 12.5055 8.30521L13.8609 8.67379C14.0481 8.72468 14.1587 8.91833 14.1081 9.10631C14.0574 9.29429 13.8646 9.40542 13.6775 9.35453L12.322 8.98594Z" stroke="#CECECE" stroke-width="0.70212"/>
<rect width="2.80933" height="4.23018" transform="matrix(0.964959 0.262401 -0.26024 0.965544 14.3301 10.9922)" fill="#0A0A0A"/>
</g>
<defs>
<clipPath id="clip0_850_4603">
<rect width="17.5583" height="17.6257" fill="white" transform="matrix(0.964959 0.262401 -0.26024 0.965544 4.82422 0.374023)"/>
</clipPath>
</defs>
</svg>
