<svg width="258" height="223" viewBox="0 0 258 223" fill="none" xmlns="http://www.w3.org/2000/svg">
<path d="M257 24.6786L257 198.321C245.684 198.321 234.832 200.816 226.83 205.257C218.829 209.697 214.333 215.72 214.333 222L43.6667 222C43.6667 215.72 39.1714 209.697 31.1699 205.257C23.1683 200.816 12.3159 198.321 0.999999 198.321L0.999993 24.6786C12.3159 24.6786 23.1683 22.1839 31.1699 17.7433C39.1714 13.3027 43.6667 7.27997 43.6667 1.00003L214.333 1.00002C214.333 7.27996 218.829 13.3027 226.83 17.7433C234.832 22.1839 245.684 24.6786 257 24.6786Z" fill="#CD2B30" stroke="#CD292E" stroke-width="1.28333" stroke-linecap="round" stroke-linejoin="round"/>
</svg>
